/* XPM */
static char * chest64_xpm[] = {
"64 64 144 2",
"  	c #39002A",
". 	c #330937",
"+ 	c #271F50",
"@ 	c #212A5C",
"# 	c #21295A",
"$ 	c #202755",
"% 	c #212751",
"& 	c #261E46",
"* 	c #2F0E30",
"= 	c #340825",
"- 	c #300B33",
"; 	c #271F4E",
"> 	c #1E203E",
", 	c #1D1B2F",
"' 	c #1E1C30",
") 	c #20182A",
"! 	c #24131D",
"~ 	c #241117",
"{ 	c #281126",
"] 	c #251D4A",
"^ 	c #1E2247",
"/ 	c #1C1928",
"( 	c #1C150C",
"_ 	c #1C1B16",
": 	c #201319",
"< 	c #221B3E",
"[ 	c #202651",
"} 	c #1D1F3F",
"| 	c #1A1518",
"1 	c #1D292C",
"2 	c #1C1411",
"3 	c #1D1624",
"4 	c #1B1B31",
"5 	c #262030",
"6 	c #212447",
"7 	c #251E28",
"8 	c #251A0D",
"9 	c #24221C",
"0 	c #1C2E34",
"a 	c #22180D",
"b 	c #2A1D0E",
"c 	c #2F2210",
"d 	c #31210E",
"e 	c #241E28",
"f 	c #372714",
"g 	c #412A0F",
"h 	c #2E1F0D",
"i 	c #37240E",
"j 	c #3D2810",
"k 	c #2E302E",
"l 	c #4A3010",
"m 	c #443621",
"n 	c #343C3B",
"o 	c #273B41",
"p 	c #482F11",
"q 	c #394647",
"r 	c #40545A",
"s 	c #282824",
"t 	c #3F4D4F",
"u 	c #4C5959",
"v 	c #526A72",
"w 	c #333025",
"x 	c #3A372C",
"y 	c #596767",
"z 	c #658089",
"A 	c #362611",
"B 	c #637D87",
"C 	c #533715",
"D 	c #50432E",
"E 	c #50666E",
"F 	c #614019",
"G 	c #604018",
"H 	c #5C4A2E",
"I 	c #5F4D33",
"J 	c #63706E",
"K 	c #5A3A15",
"L 	c #5B3C17",
"M 	c #714A1B",
"N 	c #6D481C",
"O 	c #6C5635",
"P 	c #6F7C78",
"Q 	c #6C8891",
"R 	c #4F3413",
"S 	c #634219",
"T 	c #895A21",
"U 	c #7F633B",
"V 	c #593811",
"W 	c #794F1C",
"X 	c #81551E",
"Y 	c #69838D",
"Z 	c #4E3212",
"` 	c #2B2A51",
" .	c #2D2331",
"..	c #73929C",
"+.	c #3E2C31",
"@.	c #80531B",
"#.	c #876A40",
"$.	c #829390",
"%.	c #85A9B5",
"&.	c #75898B",
"*.	c #564B37",
"=.	c #966325",
"-.	c #956224",
";.	c #936022",
">.	c #917346",
",.	c #976325",
"'.	c #83A6B2",
").	c #966323",
"!.	c #925E1E",
"~.	c #8FA09C",
"{.	c #8EB5C2",
"].	c #8DB3C0",
"^.	c #93754A",
"/.	c #918466",
"(.	c #7D99A0",
"_.	c #9B7F54",
":.	c #202A54",
"<.	c #1F2C3F",
"[.	c #8DAFBA",
"}.	c #A4B6B2",
"|.	c #ACBFBA",
"1.	c #58727A",
"2.	c #7C9FAA",
"3.	c #98BFCD",
"4.	c #A7D0DE",
"5.	c #6F8B95",
"6.	c #5F7981",
"7.	c #475D64",
"8.	c #30454C",
"9.	c #596C71",
"0.	c #1B192A",
"a.	c #442D10",
"b.	c #281D29",
"c.	c #2B191D",
"d.	c #754E1E",
"e.	c #976425",
"f.	c #372713",
"g.	c #1C172A",
"h.	c #21121E",
"i.	c #231018",
"j.	c #1D2247",
"k.	c #251D47",
"l.	c #2F0C31",
"m.	c #340525",
"                                                                                                                                ",
". . . . . . . . . . . . . . .       . . . . . . . . . . . . . . . . . . . . . . . . . . . . .       . . . . . . . . . . . . . . ",
"+ + + + + + + + + + + + + +       . + + + + + + + + + + + + + + + + + + + + + + + + + + + +       . + + + + + + + + + + + + + + ",
"@ @ @ @ @ @ @ @ @ @ @ @ @ + .     . + @ @ @ @ @ @ @ @ @ @ @ @ @ @ @ @ @ @ @ @ @ @ @ @ @ @ + .     . + @ @ @ @ @ @ @ @ @ @ @ @ @ ",
"@ @ @ @ @ @ @ @ @ @ @ @ @ + .     . + @ @ @ @ @ @ @ @ @ @ @ @ @ @ @ @ @ @ @ @ @ @ @ @ @ @ + .     . + @ @ @ @ @ @ @ @ @ @ @ @ @ ",
"@ @ @ @ @ @ @ @ @ @ @ @ @ + .     . + @ @ @ @ @ @ @ @ @ @ @ @ @ @ @ @ @ @ @ @ @ @ @ @ @ @ + .     . + @ @ @ @ @ @ @ @ @ @ @ @ @ ",
"@ @ @ @ @ @ @ @ @ @ @ @ @ + .     . + @ @ @ @ @ @ @ @ @ @ @ @ @ @ @ @ @ @ @ @ @ @ @ @ @ @ + .     . + @ @ @ @ @ @ @ @ @ @ @ @ @ ",
"@ @ @ @ @ @ @ @ @ @ @ @ @ + .     . + @ @ @ @ @ @ @ @ @ @ @ @ @ @ @ @ @ @ @ @ @ @ @ @ @ @ + .     . + @ @ @ @ @ @ @ @ @ @ @ @ @ ",
"@ @ @ @ @ @ @ @ @ @ @ @ @ + .     . + @ @ @ @ @ @ @ @ @ @ @ @ @ @ @ @ @ @ @ @ @ @ @ @ @ @ + .     . + @ @ @ @ @ @ @ @ @ @ @ @ @ ",
"@ @ @ @ @ @ @ # $ % % % % & * = = - ; @ @ @ @ @ @ @ @ @ @ @ @ @ @ @ @ @ @ @ @ @ @ @ @ @ @ ; - = = * & % % % % $ # @ @ @ @ @ @ @ ",
"@ @ @ @ @ @ @ $ > , , ' ' ) ! ~ ~ { ] @ @ @ @ @ @ @ @ @ @ @ @ @ @ @ @ @ @ @ @ @ @ @ @ @ @ ] { ~ ~ ! ) ' ' , , > $ @ @ @ @ @ @ @ ",
"@ @ @ @ @ # $ ^ / ( _ _ _ _ _ _ ( : < [ [ % % % % % % % % % % % % % % % % % % % % % % [ [ < : ( _ _ _ _ _ _ ( / ^ $ # @ @ @ @ @ ",
"@ @ @ @ @ $ } / | _ 1 1 1 1 1 1 _ 2 3 4 4 ' 5 5 5 5 5 5 5 5 5 5 5 5 5 5 5 5 5 5 5 5 ' 4 4 3 2 _ 1 1 1 1 1 1 _ | / } $ @ @ @ @ @ ",
"@ @ @ # $ 6 7 8 8 9 1 0 0 0 0 1 _ a 8 8 8 b c d d d d d d d d d d d d d d d d d d c b 8 8 8 a _ 1 0 0 0 0 1 9 8 8 7 6 $ # @ @ @ ",
"@ @ @ $ } e f g g f 1 0 0 0 0 1 9 h i j j j g g g g g g g g g g g g g g g g g g g g j j j i h 9 1 0 0 0 0 k f g g f e } $ @ @ @ ",
"@ # $ 6 e c g l l m n o o o o k 9 d g l l l l l l l l l l l l l l l l l l l l l l l l l l g d 9 k o o o o k m l l g c e 6 $ # @ ",
"@ $ } 7 f g p l l m q r r r r q s d g l l l l l l l l l l l l l l l l l l l l l l l l l l g d s q r r r r t m l l p g f 7 } $ @ ",
"@ % , 8 i g g g g m u v v v v u w h j g g g g g g g g g g g g g g g g g g g g g g g g g g j h w u v v v v u m g g g g f 8 , % @ ",
"@ % , a b d d h h x y z z z z y x b h d d d d d d d d d d d d d d d d d d d d d d d d d d h b x y z z z z y x h h d d b a , % @ ",
"@ [ 4 8 d A A i i x y z B B z y x b d A A A A A A A A A A A A A A A A A A A A A A A A A A d b x y z B B z y x i i A A d 8 4 [ @ ",
"@ [ 5 c p C C C C D u v E E v r w d p C C C C C C C C C C C C C C C C C C C C C C C C C C p d w r v E E v u D C C C C p c 5 [ @ ",
"@ [ 5 A C F F F G H u E E E E u w j C F F F F F F F F F F F F F F F F F F F F F F F F F F C j w u E E E v u H G F F F C A 5 [ @ ",
"@ [ 5 A C F G G G I J B B B B y D p K G G G G G G G G G G G G G G G G G G G G G G G G G G K p D y B B B B J I G G G F C A 5 [ @ ",
"@ [ 5 j L M N N N O P Q Q Q Q J D R S N N N N N N N N N N N N N N N N N N N N N N N N N N S R D J Q Q Q Q P O N N N M L j 5 [ @ ",
"@ [ 5 g M T T T T U P Q Q Q Q J D V W T T T T T T T T T T T T T T T T T T T T T T T T T T W V D J Q Q Q Q P U T T T T M g 5 [ @ ",
"@ [ 5 j N X X X X U P Q Q Q Q J D V M X X X X X X X X X X X X X X X X X X X X X X X X X X M V D J Q Q Q Y P U X X X X N j 5 [ @ ",
"@ [ 5 A Z K K K V I J Q Y Q Q J D l C K K K K K K K K K K K K K K K K K K K K K K K K K K C l D J Q Q Y Q J I V K K K Z A 5 [ @ ",
"@ `  .j R K K V V I P ........P D l C K K K K K K K K K K K K K K K K K K K K K K K K K K V l D P ........P I V V K K R j  .` @ ",
"@ ` +.R M X X @.@.#.$.%.%.%.%.&.*.C M X X X X X X X X X X X X X X X X X X X X X X X X X X M C *.&.%.%.%.%.$.#.@.@.X X M R +.` @ ",
"@ ` +.K X =.=.-.;.>.$.%.%.%.%.&.*.V X ,.=.-.-.-.-.-.-.-.-.-.-.-.-.-.-.-.-.-.-.-.-.-.-.=.,.X V *.&.%.%.%.%.$.>.;.-.=.=.X K +.` @ ",
"@ ` +.K X =.-.-.-.#.P ........P D V X =.-.-.-.-.-.-.-.-.-.-.-.-.-.-.-.-.-.-.-.-.-.-.-.-.=.X V D P ........P #.-.-.-.=.X K +.` @ ",
"@ ` +.K X -.-.;.;.>.P ........P D V X -.-.;.;.;.;.;.;.;.;.;.;.;.;.;.;.;.;.;.;.;.;.;.;.-.-.X V D P ........&.#.;.;.-.-.X K +.` @ ",
"@ ` +.K X -.-.;.;.>.$.%.'.%.%.&.*.V @.-.-.;.-.-.;.-.-.;.-.-.;.-.-.;.-.-.;.-.-.;.-.-.;.-.-.@.V *.&.%.%.'.%.$.>.;.;.-.-.X K +.` @ ",
"@ ` +.K X ).;.!.!.>.~.{.].{.{.$.*.V @.-.;.;.;.;.;.;.;.;.;.;.;.;.;.;.;.;.;.;.;.;.;.;.;.;.-.@.V *.$.{.{.].{.~.>.!.!.;.).X K +.` @ ",
"@ ` +.K X ).;.!.!.>.~.].].].{.$.*.V @.;.;.;.!.!.!.!.!.!.!.!.!.!.!.!.!.!.!.!.!.!.!.!.;.;.;.@.V *.$.{.].].].~.>.!.!.;.).X K +.` @ ",
"@ ` +.C O #.>.^.^./.~.].].].{.(.y O #.^.^.^._._._._._._._._._._._._._._._._._._._._.^.^.^.#.O y (.{.].].{.~./.^.^.>.#.O C +.` @ ",
"@ :.<.n t J $.~.~.~.[.].].].].%.(.$.~.~.~.~.}.|.|.|.|.|.|.|.|.|.|.|.|.|.|.|.|.|.|.}.~.~.~.~.$.(.%.].].].].[.~.~.~.$.J t n <.:.@ ",
"@ :.<.o r 1...2.2.2.2.2.'.'.'.'.%.%.%.'.%.].3.4.4.4.4.4.3.].].].].].].3.4.4.4.4.4.3.[.%.'.%.%.%.'.'.'.'.2.2.2.2.2.5.1.r o <.:.@ ",
"@ :.<.o r E 1.1.1.1.1.6.Q ..................(.'.{.3.3.'.1.r 7.7.7.7.r 1.'.3.3.{.'.(...................Q 6.1.1.1.1.1.E r o <.:.@ ",
"@ :.<.o r 7.7.7.7.7.7.E B Q Q Q Q Q Q Q Q Q Y 5.2.%.%.Q 8.1 1 0 0 0 1 8.Q %.%.2.5.Y Q Q Q Q Q Q Q Q Q B E 7.7.7.7.7.7.r o <.:.@ ",
"@ :.<.o r 7.7.7.7.7.7.E B Q Q Q Q Q Q Q Q Q Q Q 5.....6.8.0 0 0 0 1 0 8.6.....5.Q Q Q Q Q Q Q Q Q Q Q B E 7.7.7.7.7.E r o <.:.@ ",
"@ :.<.0 q t t t t t t r E 9.9.9.9.9.9.9.9.9.6.z Y Q Q 1.8.0 0 0 0 0 0 8.1.Q Q Y z 6.9.9.9.9.9.9.9.9.9.y r t t t t t t q 0 <.:.@ ",
"@ % , 9 9 s s s s s s s k k k k k k k k k n 7.1.z Q Q 1.8.0 0 0 0 0 0 8.1.Q Q z 1.7.n k k k k k k k k k s s s s s s s 9 9 , % @ ",
"@ $ } / | ( ( ( ( ( ( ( ( ( ( ( ( ( ( ( ( 9 n 7.6.Q Q 1.8.0 0 0 0 0 0 8.1.Q Q 6.7.n 9 ( ( ( ( ( ( ( ( ( ( ( ( ( ( ( ( | / } $ @ ",
"@ # $ ^ 0.( a 8 8 a ( ( a 8 8 8 8 8 8 8 8 8 9 n 1.5.5.1.8.0 0 0 0 0 0 8.1.5.5.1.n 9 8 8 8 8 8 8 8 8 8 a ( ( a 8 8 a ( 0.^ $ # @ ",
"@ @ @ [ ' 8 h d d h a a h d d d d d d d d b ( k E Y Q 6.r 8.8.8.8.8.8.r 6.Q Y E k ( b d d d d d d d d h a a h d d h 8 ' [ @ @ @ ",
"@ @ @ [ 5 h j a.a.i 8 8 i a.g g g g g g a.i a s r 1.Y Y 6.1.1.1.1.1.1.6.Y Y 1.r s a i a.g g g g g g a.i 8 8 i a.a.j h 5 [ @ @ @ ",
"+ + + & b.d g l l j b b j l l l l l p l l g b 9 n r y 9.9.9.9.9.9.9.9.9.9.y r n 9 b g l l p l l l l l j b b j l l g d b.& + + + ",
". . . * c.d g l l g h h g l l p p p p p l g h b s w x x x x x x x x x x x x w s b h g l p p p p p l l g h h g l l g d c.* . . . ",
". . . * c.d a.R R a.d d g l l p p l Z R R p j A i i i i i A A A A A A A i i i i A j p R R Z l p p l l g d d a.R R a.d c.* . . . ",
"+ + + & b.A R L L R A d g l l p p Z K L L K C C C C C C C C C C C C C C C C C C C C L L L K Z p p l l g d A R L L R A b.& + + + ",
"@ @ @ % 5 A C S S C A h j g g g g a.R C K L L L L L L L L L L L L L L L L L L L L L L K C R a.g g g g j h A C S S C A 5 % @ @ @ ",
"@ @ @ % 5 A C S S C A b h d d d c c A j p Z Z Z Z Z Z Z Z Z Z Z Z Z Z Z Z Z Z Z Z Z Z p j A c c d d d h b A C S S C A 5 % @ @ @ ",
"@ @ @ % 5 A C F F C A b d A A A g g A j R K K K K K K K K K K K K K K K K K K K K K K R j A g g A A A d b A C F F C A 5 % @ @ @ ",
"@ @ @ % 5 A C F F C A d p C C L M M L L d.X X X X X X X X X X X X X X X X X X X X X X d.L L M M L C C p d A C F F C A 5 % @ @ @ ",
"@ @ @ % 5 A C F F C j j C F F N T T N N T =.=.-.-.-.-.-.-.-.-.-.-.-.-.-.-.-.-.-.-.=.=.T N N T T N F F C j j C F F C A 5 % @ @ @ ",
"@ @ @ % 5 A C F F K p p K F G N T T N N T =.-.-.-.-.-.-.-.-.-.-.-.-.-.-.-.-.-.-.-.-.=.T N N T T N G F K p p K F F C A 5 % @ @ @ ",
"@ @ @ % 5 A C S S L R R L F G N T T N N T =.).-.-.-.-.-.-.-.-.-.-.-.-.-.-.-.-.-.-.).=.T N N T T N G F L R R L S S C A 5 % @ @ @ ",
"@ @ @ % 5 A C S S L R R L F F M T T N N T e.,.).).).).).).).).).).).).).).).).).).,.e.T N N T T M F F L R R L S S C A 5 % @ @ @ ",
"@ @ @ % 5 c a.R R l g g l R R L N N K K N d.d.d.d.d.d.d.d.d.d.d.d.d.d.d.d.d.d.d.d.d.d.N K K N N L R R l g g l R R a.c 5 % @ @ @ ",
"@ @ @ % ' a b b b b 8 8 b b b c A A c c A f f f f f f f f f f.f.f.f.f f f f f f f f f A c c A A c b b b 8 8 b b b b a ' % @ @ @ ",
"@ @ @ % ' _ 9 s k k k k k s _ | 0.4 4 4 4 4 4 4 4 4 4 4 4 g.h.i.i.h.g.4 4 4 4 4 4 4 4 4 4 4 4 0.| _ s k k k k k s 9 _ ' % @ @ @ ",
"@ @ @ % ' 9 n r E 9.9.9.9.u s 0.j.[ [ [ [ [ [ [ [ [ [ [ [ k.l.m.m.l.k.[ [ [ [ [ [ [ [ [ [ [ [ j.0.s u 9.9.9.9.E r n 9 ' % @ @ @ ",
"@ @ @ % ' s t v z 5.5.5.5.9.k , [ @ @ @ @ @ @ @ @ @ @ @ @ + .     . + @ @ @ @ @ @ @ @ @ @ @ @ [ , k 9.5.5.5.5.z v t s ' % @ @ @ "};
