/* XPM */
static char *_22470d25e86408bf9dc15580e81ece15zHo0FHmN6P50u9l[] = {
/* columns rows colors chars-per-pixel */
"32 32 12 1 ",
"  c None",
". c #1C160F",
"X c #1E3036",
"o c #2A1E0E",
"O c #492F10",
"+ c #485E65",
"@ c #6B868F",
"# c #604019",
"$ c #936124",
"% c #8CB1BD",
"& c #B1D9E6",
"* c white",
/* pixels */
"                                ",
"                                ",
"                                ",
"                                ",
"                                ",
"    .....              .....    ",
"   ..XXX...oooooooooo...XXX..   ",
"  .OOXXXoOOOOOOOOOOOOOOoXXXOO.  ",
" .OOO+++oOOOOOOOOOOOOOOo+++OOO. ",
" .ooo@@@oooooooooooooooo@@@ooo. ",
" o###+++o##############o+++###o ",
" o###@@@O##############O@@@###o ",
" o$$$@@@O$$$$$$$$$$$$$$O@@@$$$o ",
" oOOO@@@OOOOOOOOOOOOOOOO@@@OOOo ",
" O$$$%%%O$$$$$$$$$$$$$$O%%%$$$O ",
" O$$$@@@O$$$$$$$$$$$$$$O@@@$$$O ",
" O$$$%%%O$$$$$$$$$$$$$$O%%%$$$O ",
" O$$$%%%O$$$$$$$$$$$$$$O%%%$$$O ",
" X+%%%%%%%%&&&&&&&&&&%%%%%%%%+X ",
" X++++@@@@@@%%XXXX%%@@@@@@++++X ",
" X++++@@@@@@@@XXXX@@@@@@@@++++X ",
" ..........+@@XXXX@@+.......... ",
"  .oo.ooooo.@@XXXX@@.ooooo.oo.  ",
"  oOO.OOOOO.+@@@@@@+.OOOOO.OOo  ",
"  oOOoOOOOOooooooooooOOOOOoOOo  ",
"  o##oOOO##############OOOo##o  ",
"  o##oooooOOOOOOOOOOOOooooo##o  ",
"  o##o##$#$$$$$$$$$$$$#$##o##o  ",
"  o##O##$#$$$$$$$$$$$$#$##O##o  ",
"  o##O##$#$$$$$$$$$$$$#$##O##o  ",
"  ............................  ",
"  .+@@@.                .@@@+.  "
};
