/* XPM */
static char *ac8e1f1b635040718094abde82eab506KsNKKVtopmc4b9QX[] = {
/* columns rows colors chars-per-pixel */
"64 64 52 1 ",
"  c #1C150F",
". c #4A2F10",
"X c #1A130C",
"o c #1C1A21",
"O c #212A5D",
"+ c #20254A",
"@ c #222B5E",
"# c #261B0D",
"$ c #1E170E",
"% c #2B1E0E",
"& c #5E3E17",
"* c #372610",
"= c #272824",
"- c #3E290F",
"; c #39002B",
": c #330937",
"> c #3E4D51",
", c #271F50",
"< c #966324",
"1 c #31220E",
"2 c #543816",
"3 c #2D3230",
"4 c #422B10",
"5 c #4F3312",
"6 c #22190D",
"7 c #25211F",
"8 c #5A6D73",
"9 c #20285A",
"0 c #4A6169",
"q c #1C171C",
"w c #22295C",
"e c #6E491C",
"r c #617A87",
"t c #364243",
"y c #546A71",
"u c #764F1E",
"i c #465557",
"p c #895A21",
"a c #81551F",
"s c #231D3F",
"d c #956224",
"f c #475A5F",
"g c #344069",
"h c #1E1C16",
"j c #291D15",
"k c #2E0D2E",
"l c #1F1F30",
"z c #310322",
"x c #453824",
"c c #6F8C96",
"v c #6E8A94",
"b c #4A1321",
/* pixels */
";;;;;;;;;;;;;;;;;;;;;;;;;;;;;;;;;;;;;;;;;;;;;;;;;;;;;;;;;;;;;;;;",
"::::::::::::::;;;;::::::::::::::::::::::::::::;;;;::::::::::::::",
",,,,,,,,,,,,,,:;;:,,,,,,,,,,,,,,,,,,,,,,,,,,,,:;;:,,,,,,,,,,,,,,",
"OOOOOOO@@@@@@,:;;:,@@OOOOOOOOOOOOOOOOOOOOOO@@,:;;:,@@@@@@OOOOOOO",
"@@@@@@@@@@@@@,:;;:,@O@@@@@@@@@@@@@@@@@@@@@@O@,:;;:,@@@@@@@@@@@@@",
"wwOOOO@9+++++skzzk,@@OOOwwwwwwwwwwwwwwwwOOO@@,kzzks+++++9@OOOOww",
"wwO@@@@+loqooq   o+@@@@Ow99999999999999wO@@@@+o   qooqol+@@@@Oww",
"O9+++++sqh=3333=hqs+++++gggggggggggggggg+++++sqh=3333=hqs+++++9O",
"@+looooqX=i8888i= qooqq30rrrrrrrrrrrrrr03qqooq =i8888i=Xqooool+@",
"@+o$7====tyrrrryt====7h3yrrr8yyyyyy8rrry3h7===7tyrrrryt====7$o+@",
"@+o7t>>>>i0y8y80i>>>>t33fyyft333333tfyyf33t>>>>i0y8y80i>>>>t7o+@",
"@+o7tiii>>>>>>>>>>>>>t33>00>7XXXXXX7>00>33t>>>>>>>>>>>>>iiit7o+@",
"@+ojxxxx==============h=>00>=XXX XX=>00>=h7=============xxxxjo+@",
"@+o#-..-#XXXXXXXXX   XX=>00>=X    X=>00>=XXX XXXXXXXXX #-..-#o+@",
"@+o#-..-#X           XX=>00>=X    X=>00>=XX           X#-..-#o+@",
"@+o#-..-#   $$$$$$$$$$$=>00>=XX  XX=>00>=$$$$$$$$$$$   #-..-#o+@",
"@+o#-..-#  $###########=>00>=XXXXXX=>00>=###########$  #-..-#o+@",
"@+o#-..-#  $#%%%%%%%%%1=tf0i3======3i0ft=%%%%%%%%%%#$  #-..-#o+@",
"@+o#-..-#  $#%%%%%%%%%%j3tffi>>>>>>ifft37%%%%%%%%%%#$  #-..-#o+@",
"@+o#-..-#  $###########773t>>>>>>>>>>t37j###########$  #-..-#o+@",
"@+o#-..-#   $$$$$$$$$$$$hh============hh$$$$$$$$$$$$   #-..-#o+@",
"@+o#-..-#                  XXXXXXXX  X                 #-..-#o+@",
"@+o#-..-#                                              #-..-#o+@",
"@+o#-..-#              $                               #-..-#o+@",
"@+o#-..-#                                              #-..-#o+@",
"@+o#-..-#                                              #-..-#o+@",
"@+o#-..-#                                              #-..-#o+@",
"@+o#-..-#                                              #-..-#o+@",
"@+o#-..-#                                              #-..-#o+@",
"@+o#*44*#                                              #*44*#o+@",
"@+o6%11%6                                              6%11%6o+@",
"@+o6%11%6                                              6%11%6o+@",
"@+o#*44*#                                              #*44*#o+@",
"@+o#*44*#                                              #*44*#o+@",
"@+o6%11%6                                              6%11%6o+@",
"@+o$#%%#$                                              $#%%#$o+@",
"@+o$#%%#$                                              $#%%#$o+@",
"@+o$#%%#$   $$$$$$$$$$$$$$$$$$$$$$$$$$$$$$$$$$$$$$$$   $#%%#$o+@",
"@+o$#%%#$  $########################################$  $#%%#$o+@",
"@+o$#%%#$  $#%%%%%%%%%%%%%%%%%%%%%%%%%%%%%%%%%%%%%%#$  $#%%#$o+@",
"@+o$#%%#$  $#%%%%%%%%%%%%%%%%%%%%%%%%%%%%%%%%%%%%%%#$  $#%%#$o+@",
"@+o$6##6$  $########################################$  $6##6$o+@",
"@+o$$$$$    $$$$$$$$$$$$$$$$$$$$$$$$$$$$$$$$$$$$$$$$    $$$$$o+@",
"@+lq  $$$$  $$$$$$$$$$   h7=33333333=7h   $$$$$$$$$$  $$$$  ql+@",
"O9+sq$6##6$$6########6$  7tiy888888yit7  $6########6$$6##6$qs+9O",
"@@@+o6%11%66%11111111%6XX=iy88888888yi=XX6%11111111%66%11%6o+@@@",
"O@@+7%-44*66*44444444*#XX3y8t333333t8y3XX#*44444444*66*44-%7+@@O",
",,,s714..-%%-........-%$$=ff=XX$$XX=ff=$$%-........-%%-..417s,,,",
":::kj14..-%%4........-%66j33j66666#j33j66%-........4%%-..41jk:::",
":::kj1.554114.....555.-******************-.555.....411455.1jk:::",
",,,s7*5&&5*14....52&&2222222222222222222222&&25....41*5&&5*7s,,,",
"O@@+7*2&&2*%*44--4522&&&&2&&&&&&&&&&&&&&&&&2254--44*%*2&&2*7+@@O",
"@@@+7*2&&2*%%11111*-.55.555.5.5.5.5..5.5.55.-*11111%%*2&&2*7+@@@",
"wO@+7*2&&2*%1***44*-5&&2&2&2&&2&&&2&&2&&2&&5-*44***1%*2&&2*7+@Ow",
"wO@+7*2&&2*1.22&ee&&uaaaaaaaaaaaaaaaaaaaaaau&&ee&22.1*2&&2*7+@Ow",
"wO@+7*2&&2--2&&eppeep<dddddddddddddddddddd<peeppe&&2--2&&2*7+@Ow",
"wO@+7*2&&&..2&&eppeepddddddddddddddddddddddpeeppe&&&..2&&2*7+@Ow",
"wO@+7*2&&&55&&&eppeep<<dddddddddddddddddd<<peeppe&&&55&e&2*7+@Ow",
"wO@+7*2&e&55&&&eppeep<<<<<<<<<<<<<<<<<<<<<<peeppe&&&55&&&2*7+@Ow",
"wO@+71455.44.55&ee22euuuuuuuuuuuuuuuuuuuuuue22ee&55.44.52417+@Ow",
"wO@+o6#%%%##%%%1**11************************11**1%%%##%%%#6o+@Ow",
"wO@+o$7=33333=h qooooooooooooqq  qqooooooooooooo h=33333=7$o+@Ow",
"wO@+o7ti08888i=qs++++++++++++skzzks++++++++++++sq=i88880it7o+@Ow",
"wO@+o=>yrvvcc83o+@@@@@@@@@@@@,:;;:,@@@@@@@@@@@@+o38ccvvry>=o+@Ow"
};
