/* XPM */
static char *feb29dc107434696fbfc6b4de1b8e5fakj3x6jLOJkCjIDwi[] = {
/* columns rows colors chars-per-pixel */
"64 64 120 2 ",
"   c #47704C",
".  c #1A140E",
"X  c #402A0F",
"o  c #452D10",
"O  c #18140E",
"+  c #1B150E",
"@  c None",
"#  c #22190D",
"$  c #281C0D",
"%  c #1B140D",
"&  c #19140E",
"*  c #1E2D32",
"=  c #1C2C30",
"-  c #1D160E",
";  c #1B150E",
":  c #1A140D",
">  c #1A140E",
",  c #1A140D",
"<  c #1A140E",
"1  c #1C160F",
"2  c #251B0F",
"3  c #21190F",
"4  c #261B0F",
"5  c #16110B",
"6  c #30210E",
"7  c #4A2A15",
"8  c #956224",
"9  c #4A3010",
"0  c #412A0F",
"q  c #533715",
"w  c #5A3A15",
"e  c #6C8891",
"r  c #936022",
"t  c #362611",
"y  c #31210E",
"u  c #81551E",
"i  c #6D481C",
"p  c #614019",
"a  c #2E1F0D",
"s  c #593811",
"d  c #895A21",
"f  c #1C2E34",
"g  c #73929C",
"h  c #80531B",
"j  c #251A0D",
"k  c #85A9B5",
"l  c #1C150C",
"z  c #2A1D0E",
"x  c #482F11",
"c  c #604018",
"v  c #3D2810",
"b  c #596C71",
"n  c #37240E",
"m  c #2E302E",
"M  c #58727A",
"N  c #4F3413",
"B  c #4E3212",
"V  c #475D64",
"C  c #925E1E",
"Z  c #40545A",
"A  c #282824",
"S  c #8DB3C0",
"D  c #50666E",
"F  c #1C1B16",
"G  c #966323",
"H  c #1D292C",
"J  c #24221C",
"K  c #754E1E",
"L  c #8FA09C",
"P  c #9B7F54",
"I  c #5B3C17",
"U  c #3A372C",
"Y  c #22180D",
"T  c #634219",
"R  c #658089",
"E  c #6F7C78",
"W  c #30454C",
"Q  c #ACBFBA",
"!  c #50432E",
"~  c #966325",
"^  c #442D10",
"/  c #637D87",
"(  c #3F4D4F",
")  c #6F8B95",
"_  c #273B41",
"`  c #596767",
"'  c #8EB5C2",
"]  c #829390",
"[  c #343C3B",
"{  c #63706E",
"}  c #2F2210",
"|  c #526A72",
" . c #4C5959",
".. c #5F7981",
"X. c #7C9FAA",
"o. c #714A1B",
"O. c #93754A",
"+. c #917346",
"@. c #69838D",
"#. c #876A40",
"$. c #A7D0DE",
"%. c #564B37",
"&. c #333025",
"*. c #98BFCD",
"=. c #443621",
"-. c #7D99A0",
";. c #394647",
":. c #83A6B2",
">. c #75898B",
",. c #5F4D33",
"<. c #6C5635",
"1. c #8DAFBA",
"2. c #7F633B",
"3. c #976325",
"4. c #A4B6B2",
"5. c #5C4A2E",
"6. c #918466",
"7. c #794F1C",
"8. c #976425",
"9. c #47704C",
/* pixels */
"                                                                                                                                ",
"                                                                                                                                ",
"                                                                                                                                ",
"                                                                                                                                ",
"                                                                                                                                ",
"                                                                                                                                ",
"                                                                                                                                ",
"                                                                                                                                ",
"                                                                                                                                ",
"              & . # # # # # # # # . &                                                     & . # # # # # # # # . &               ",
"              . 1 + + - - - - + + 1 .                                                     . 1 + + - - - - + + 1 .               ",
"          & . < ; l F F F F F F l ; < % % # # # # # # # # # # # # # # # # # # # # # # % % < ; l F F F F F F l ; < . &           ",
"          . > ; : F H H H H H H F : , O O - $ $ $ $ $ $ $ $ $ $ $ $ $ $ $ $ $ $ $ $ - O O , : F H H H H H H F : ; > .           ",
"      & . 3 4 j j J H f f f f H F Y j j j z } y y y y y y y y y y y y y y y y y y } z j j j Y F H f f f f H J j j 4 3 . &       ",
"      . > 2 @ 0 0 @ H f f f f H J a n v v v 0 0 0 0 0 0 0 0 0 0 0 0 0 0 0 0 0 0 0 0 v v v n a J H f f f f m @ 0 0 @ 2 > .       ",
"  & . 3 2 } 0 9 9 =.[ _ _ _ _ m J y 0 9 9 9 9 9 9 9 9 9 9 9 9 9 9 9 9 9 9 9 9 9 9 9 9 9 9 0 y J m _ _ _ _ m =.9 9 0 } 2 3 . &   ",
"  . > 4 @ 0 x 9 9 =.;.Z Z Z Z ;.A y 0 9 9 9 9 9 9 9 9 9 9 9 9 9 9 9 9 9 9 9 9 9 9 9 9 9 9 0 y A ;.Z Z Z Z ( =.9 9 x 0 @ 4 > .   ",
"  # + j n 0 0 0 0 =. .| | | |  .&.a v 0 0 0 0 0 0 0 0 0 0 0 0 0 0 0 0 0 0 0 0 0 0 0 0 0 0 v a &. .| | | |  .=.0 0 0 0 @ j + #   ",
"  # + Y z y y a a U ` R R R R ` U z a y y y y y y y y y y y y y y y y y y y y y y y y y y a z U ` R R R R ` U a a y y z Y + #   ",
"  % O j y t t n n U ` R / / R ` U z y t t t t t t t t t t t t t t t t t t t t t t t t t t y z U ` R / / R ` U n n t t y j O %   ",
"  % $ } x q q q q !  .| D D | Z &.y x q q q q q q q q q q q q q q q q q q q q q q q q q q x y &.Z | D D |  .! q q q q x } $ %   ",
"  % $ t q p p p c 5. .D D D D  .&.v q p p p p p p p p p p p p p p p p p p p p p p p p p p q v &. .D D D |  .5.c p p p q t $ %   ",
"  % $ t q p c c c ,.{ / / / / ` ! x w c c c c c c c c c c c c c c c c c c c c c c c c c c w x ! ` / / / / { ,.c c c p q t $ %   ",
"  % $ v I o.i i i <.E e e e e { ! N T i i i i i i i i i i i i i i i i i i i i i i i i i i T N ! { e e e e E <.i i i o.I v $ %   ",
"  % $ 0 o.d d d d 2.E e e e e { ! s 7.d d d d d d d d d d d d d d d d d d d d d d d d d d 7.s ! { e e e e E 2.d d d d o.0 $ %   ",
"  % $ v i u u u u 2.E e e e e { ! s o.u u u u u u u u u u u u u u u u u u u u u u u u u u o.s ! { e e e @.E 2.u u u u i v $ %   ",
"  % $ t B w w w s ,.{ e @.e e { ! 9 q w w w w w w w w w w w w w w w w w w w w w w w w w w q 9 ! { e e @.e { ,.s w w w B t $ %   ",
"  X 6 v N w w s s ,.E g g g g E ! 9 q w w w w w w w w w w w w w w w w w w w w w w w w w w s 9 ! E g g g g E ,.s s w w N v 6 X   ",
"  X o N o.u u h h #.] k k k k >.%.q o.u u u u u u u u u u u u u u u u u u u u u u u u u u o.q %.>.k k k k ] #.h h u u o.N o X   ",
"  X o w u ~ ~ 8 r +.] k k k k >.%.s u 3.~ 8 8 8 8 8 8 8 8 8 8 8 8 8 8 8 8 8 8 8 8 8 8 ~ 3.u s %.>.k k k k ] +.r 8 ~ ~ u w o X   ",
"  X o w u ~ 8 8 8 #.E g g g g E ! s u ~ 8 8 8 8 8 8 8 8 8 8 8 8 8 8 8 8 8 8 8 8 8 8 8 8 ~ u s ! E g g g g E #.8 8 8 ~ u w o X   ",
"  X o w u 8 8 r r +.E g g g g E ! s u 8 8 r r r r r r r r r r r r r r r r r r r r r r 8 8 u s ! E g g g g >.#.r r 8 8 u w o X   ",
"  X o w u 8 8 r r +.] k :.k k >.%.s h 8 8 r 8 8 r 8 8 r 8 8 r 8 8 r 8 8 r 8 8 r 8 8 r 8 8 h s %.>.k k :.k ] +.r r 8 8 u w o X   ",
"  X o w u G r C C +.L ' S ' ' ] %.s h 8 r r r r r r r r r r r r r r r r r r r r r r r r 8 h s %.] ' ' S ' L +.C C r G u w o X   ",
"  X o w u G r C C +.L S S S ' ] %.s h r r r C C C C C C C C C C C C C C C C C C C C r r r h s %.] ' S S S L +.C C r G u w o X   ",
"  X o q <.#.+.O.O.6.L S S S ' -.` <.#.O.O.O.P P P P P P P P P P P P P P P P P P P P O.O.O.#.<.` -.' S S ' L 6.O.O.+.#.<.q o X   ",
"  = * [ ( { ] L L L 1.S S S S k -.] L L L L 4.Q Q Q Q Q Q Q Q Q Q Q Q Q Q Q Q Q Q 4.L L L L ] -.k S S S S 1.L L L ] { ( [ * =   ",
"  = * _ Z M g X.X.X.X.X.:.:.:.:.k k k :.k S *.$.$.$.$.$.*.S S S S S S *.$.$.$.$.$.*.1.k :.k k k :.:.:.:.X.X.X.X.X.) M Z _ * =   ",
"  = * _ Z D M M M M M ..e g g g g g g g g g -.:.' *.*.:.M Z V V V V Z M :.*.*.' :.-.g g g g g g g g g e ..M M M M M D Z _ * =   ",
"  = * _ Z V V V V V V D / e e e e e e e e e @.) X.k k e W H H f f f H W e k k X.) @.e e e e e e e e e / D V V V V V V Z _ * =   ",
"  = * _ Z V V V V V V D / e e e e e e e e e e e ) g g ..W f f f f H f W ..g g ) e e e e e e e e e e e / D V V V V V D Z _ * =   ",
"  = * f ;.( ( ( ( ( ( Z D b b b b b b b b b ..R @.e e M W f f f f f f W M e e @.R ..b b b b b b b b b ` Z ( ( ( ( ( ( ;.f * =   ",
"  # + J J A A A A A A A m m m m m m m m m [ V M R e e M W f f f f f f W M e e R M V [ m m m m m m m m m A A A A A A A J J + #   ",
"  . > ; : l l l l l l l l l l l l l l l l J [ V ..e e M W f f f f f f W M e e ..V [ J l l l l l l l l l l l l l l l l : ; > .   ",
"  & . < , l Y j j Y l l Y j j j j j j j j j J [ M ) ) M W f f f f f f W M ) ) M [ J j j j j j j j j j Y l l Y j j Y l , < . &   ",
"      % - j a y y a Y Y a y y y y y y y y z l m D @.e ..Z W W W W W W Z ..e @.D m l z y y y y y y y y a Y Y a y y a j - %       ",
"      % $ a v ^ ^ n j j n ^ 0 0 0 0 0 0 ^ n Y A Z M @.@...M M M M M M ..@.@.M Z A Y n ^ 0 0 0 0 0 0 ^ n j j n ^ ^ v a $ %       ",
"      # $ y 0 9 9 v z z v 9 9 9 9 9 x 9 9 0 z J [ Z ` b b b b b b b b b b ` Z [ J z 0 9 9 x 9 9 9 9 9 v z z v 9 9 0 y $ #       ",
"      # $ y 0 9 9 0 a a 0 9 9 x x x x x 9 0 a z A &.U U U U U U U U U U U U &.A z a 0 9 x x x x x 9 9 0 a a 0 9 9 0 y $ #       ",
"      # $ y ^ N N ^ y y 0 9 9 x x 9 B N N x v t n n n n n t t t t t t t n n n n t v x N N B 9 x x 9 9 0 y y ^ N N ^ y $ #       ",
"      # $ t N I I N t y 0 9 9 x x B w I I w q q q q q q q q q q q q q q q q q q q q I I I w B x x 9 9 0 y t N I I N t $ #       ",
"      # $ t q T T q t a v 0 0 0 0 ^ N q w I I I I I I I I I I I I I I I I I I I I I I w q N ^ 0 0 0 0 v a t q T T q t $ #       ",
"      # $ t q T T q t z a y y y } } t v x B B B B B B B B B B B B B B B B B B B B B B x v t } } y y y a z t q T T q t $ #       ",
"      # $ t q p p q t z y t t t 0 0 t v N w w w w w w w w w w w w w w w w w w w w w w N v t 0 0 t t t y z t q p p q t $ #       ",
"      # $ t q p p q t y x q q I o.o.I I K u u u u u u u u u u u u u u u u u u u u u u K I I o.o.I q q x y t q p p q t $ #       ",
"      # $ t q p p q v v q p p i d d i i d ~ ~ 8 8 8 8 8 8 8 8 8 8 8 8 8 8 8 8 8 8 ~ ~ d i i d d i p p q v v q p p q t $ #       ",
"      # $ t q p p w x x w p c i d d i i d ~ 8 8 8 8 8 8 8 8 8 8 8 8 8 8 8 8 8 8 8 8 ~ d i i d d i c p w x x w p p q t $ #       ",
"      # $ t q T T I N N I p c i d d i i d ~ G 8 8 8 8 8 8 8 8 8 8 8 8 8 8 8 8 8 8 G ~ d i i d d i c p I N N I T T q t $ #       ",
"      # $ t q T T I N N I p p o.d d i i d 8.3.G G G G G G G G G G G G G G G G G G 3.8.d i i d d o.p p I N N I T T q t $ #       ",
"      # $ } ^ N N 9 0 0 9 N N I i i w w i K K K K K K K K K K K K K K K K K K K K K K i w w i i I N N 9 0 0 9 N N ^ } $ #       ",
"      # - Y z z z z j j z z z } t t } } t @ @ @ @ @ @ @ @ @ @ @ @ @ @ @ @ @ @ @ @ @ @ t } } t t } z z z j j z z z z Y - #       ",
"      # - F J A m m m m m A F : , O O O O O O O O O O O O O O O O O O O O O O O O O O O O O O , : F A m m m m m A J F - #       ",
"      # - J [ Z D b b b b  .A , 5 % % % % % % % % % % % % % % % % % % % % % % % % % % % % % % 5 , A  .b b b b D Z [ J - #       ",
"      # - A ( | R ) ) ) ) b m + %                                                             % + m b ) ) ) ) R | ( A - #       "
};
