/* XPM */
static char *ffb076114d884bd2c79ef6e3011a34c3EWSEhvOjm17ndOZQ[] = {
/* columns rows colors chars-per-pixel */
"64 64 3 1 ",
"  c #332B19",
". c #3D3522",
"X c #463E29",
/* pixels */
"                           ........ ..XXXX..                    ",
"                           ..........XXXXXX.                    ",
"                          ....X.....XXXXXXXX..                  ",
"                          ..........XXXXXXXXX.                  ",
"                         ...X..X.X.XXXXXXXXXX.                  ",
"                         ...........XXXXXXXXXX                  ",
"       .......           . ...X......XXXXXXXX.                  ",
"       .......             .......  ..XXXXXX..                  ",
"    ..........            . . .     . ....X..                   ",
"    .......X..             ......    .  ....                    ",
"   ...X..X....          ..XX.X.X..    . . .      .........      ",
"   ...........         ..XXXXXXXXX. .. . . .     ...........    ",
"   . ...X....         ..XXXXXXXXXXX.... . .     ............    ",
"  .  ........         .XXXXXXXXXXXXX.... .      ...X..X.X...    ",
"   . . ..             ..XXXXXXXXXXXXX....       ............    ",
"    . .  .            ..XXXXXXXXXXXX....        ....X..X....    ",
"     . .              ...XXXXXXXXXX...           ..........     ",
"      . .             ....XXXXXXXX..             .....X....     ",
"    . .        .     ...X..X.X.X.              . . ......       ",
"            ... .    ............           .... . ......       ",
"          ....... . . ....X.....          ...... . . ..         ",
"          ...... . . .  .....X..          ....... . .           ",
"        ...........  . .........        ...........  .          ",
"        ...X..X.... . .   ......        ...X..X.... .           ",
"        ........X.. . . .. ....   ....  ........X. .            ",
"        ....X.....   . .   .      ...... .......... .           ",
"       . ......     .  . .. .  .............X..                 ",
"        ....X...     .  .  .    ....X......X....                ",
"       ..XXXXX..         .      ........X.XXXX..                ",
"      ..XXXXXXX.          .     ....X..XXXXXXXX.                ",
"      .XXXXXXXXX..                ....XXXXXXXXXX..     .....    ",
"     .XXXXXXXXXX....             ..X.XXXXXXXXXXX...    .......  ",
"  ...XXXXXXXXXXXX...         .......XXXXXXXXXXXXX.    ..........",
"  .XXXXXXXXXXXXX....         .......XXXXXXXXXXXX..    ....X.....",
"  ..XXXXXXXXXXXX..          .......XXXXXXXXXXXXX.    ...........",
"  ..XXXXXXXXXXX..           .....X..XXXXXXXXXXX..    ..X..X...  ",
"  ..XXXXXXXXXX..            ..X....XXXXXXXXXXXX.     .........  ",
"  ..XXXXXXXXXX.             ........XXXXXXXXXX..      ......    ",
"   ..XXXXXXXXX.            . ...X... .XXXXXXXX.     .. ....     ",
"   ...XXXXXXX..            . .....   ..XXXXXX..       .         ",
"    ...XXXXXX.              . .     ....XXXXX.       . ..       ",
"   .  ..XXXX..            .......      ..XXX..        .  .      ",
"   . .. ....            ...XX.X.X.   . ....            .        ",
"    .  .                .XXXXXXXXX. . .   .             .       ",
"     . . .            ..XXXXXXXXXXX.... . .                     ",
"    . . .             .XXXXXXXXXXXXX.... .                      ",
"     . .              ..XXXXXXXXXXXXX....                       ",
"        .             ..XXXXXXXXXXXX....                        ",
"                      ...XXXXXXXXXX.X.                          ",
"                      ....XXXXXXXX....                          ",
"               .     ...X..X.X.X.... .     ..... .              ",
"            ... .    ..............        ...... .             ",
"          ....... . . ....X..X....       ........ .             ",
"          ...... . . .  ..........       ........ .             ",
"        ...........  . .....X....       ....X......             ",
"        ...X..X.... . .   .......       ......X...              ",
"        ........X.. . . .. ....        ...X.......              ",
"        ....X.....   . .  .           . ....X...                ",
"         ......     .  . . ..          .........                ",
"         ..... .     .  . .               .....                 ",
"         . ....          . .          . .. .. .                 ",
"         . .                           .   .                    ",
"          . .                            ..                     ",
"         . . .                           .                      "
};
