/* XPM */
static char *ef9a62c543614fc0fe5f93a157a7c26e2BvOAXnsvra6Hcig[] = {
/* columns rows colors chars-per-pixel */
"32 32 5 1 ",
"  c #322A18",
". c #382F1D",
"X c #3E3724",
"o c #473F2A",
"O c white",
/* pixels */
"             .XXX.XooX          ",
"             XXXXXooooX         ",
"            .XXXXXooooo         ",
"   .XXX     ..XXX.XoooX         ",
"  XXXXX      ...  ..XX.         ",
" .XXXXX     Xoooo ....  .XXXX.  ",
" ..XXX.    XooooooX...  XXXXXX  ",
" ....      XooooooXX.   XXXXXX  ",
"  ...      XXooooX.     .XXXX.  ",
"  ..  ... .XXXXX.     ....XX.   ",
"     XXX....XXXX     XXX....    ",
"    XXXXX....XXX    XXXXX..     ",
"    XXXXX....... XX..XXXX..     ",
"   ..XX.  ..... XXXX.XX.        ",
"   .oooX    ..  XXXXoooX        ",
"   oooooX.       XXoooooX. .XX. ",
" XooooooXX    .XXXooooooX  XXXXX",
" Xoooooo.     XXXXoooooo. .XXXX.",
" Xooooo.      XXXXoooooX  .XXX. ",
" .Xoooo.     ..XX..oooo.  ....  ",
" ..XooX      ...  ..ooX   ...   ",
" .....      Xoooo ....     ..   ",
"  ...      XooooooX...          ",
"  ...      XooooooXX.           ",
"           XXooooXX             ",
"      ... .XXXXXX..  .XX..      ",
"     XXX....XXXXX   .XXX..      ",
"    XXXXX....XXX.   XXXXX.      ",
"    XXXXX.......   .XXXX.       ",
"    .XX.  .....    ..XX.        ",
"    ....    ..     .....        ",
"    ...             ..          "
};
