/* XPM */
static char * key_32x32_xpm[] = {
"32 32 3 1",
" 	c #38002C",
".	c #222A5C",
"+	c #FDAE35",
"                                ",
".......  ..............  .......",
".......  ....+++.......  .......",
".......  ...+++++......  .......",
".......  ..++...++.....  .......",
".......  ..+.....+.....  .......",
".......  +++.....+++...  .......",
"....... +++++...+++++..  .......",
".......+++  ++ ++  +++     .....",
".......++......  ...++..........",
".......++..+...  +..++..........",
"........++++...  ++++...........",
".........++++.. ++++............",
"...........+++++++..............",
"...........+++++ ...............",
".............+++ ...............",
".....        +++         .......",
".......  ....+++.......  .......",
".......  ....+++.......  .......",
".......  ....+++.......  .......",
".......  ....+++.......  .......",
".......  ....+++.+++...  .......",
".......  ....++..++....  .......",
".......  ....+++++++...  .......",
"             ++++++             ",
".............++  +++............",
".............+++ +++............",
".............+++ ...............",
".............+++ ...............",
"...............  ...............",
"...............  ...............",
"...............  ..............."};
