/* XPM */
static char * key64_xpm[] = {
"64 64 266 2",
"  	c #39002A",
". 	c #330937",
"+ 	c #271F50",
"@ 	c #212A5C",
"# 	c #350D37",
"$ 	c #452037",
"% 	c #542E37",
"& 	c #563037",
"* 	c #4F2937",
"= 	c #3C1637",
"- 	c #2A2150",
"; 	c #412E4F",
"> 	c #7F574B",
", 	c #A67147",
"' 	c #AB7547",
") 	c #986849",
"! 	c #5E414E",
"~ 	c #322550",
"{ 	c #252B5C",
"] 	c #42385B",
"^ 	c #795756",
"/ 	c #B67F4D",
"( 	c #D99644",
"_ 	c #DD9942",
": 	c #CD8E47",
"< 	c #986B52",
"[ 	c #5A4559",
"} 	c #2E2F5C",
"| 	c #3E365B",
"1 	c #BB824C",
"2 	c #D79444",
"3 	c #DC9842",
"4 	c #DE9942",
"5 	c #E19B41",
"6 	c #E09B41",
"7 	c #CE8E47",
"8 	c #9D6E51",
"9 	c #594459",
"0 	c #31305C",
"a 	c #3A345B",
"b 	c #7D5A56",
"c 	c #CB8C48",
"d 	c #AE794E",
"e 	c #5C4659",
"f 	c #282C5C",
"g 	c #2D2250",
"h 	c #4C3D5A",
"i 	c #A47350",
"j 	c #D89544",
"k 	c #644B58",
"l 	c #5E4759",
"m 	c #C78A49",
"n 	c #775657",
"o 	c #3B042A",
"p 	c #472237",
"q 	c #4F374F",
"r 	c #AF7A4E",
"s 	c #5F4859",
"t 	c #9A6C52",
"u 	c #D39245",
"v 	c #E39C40",
"w 	c #CF8F47",
"x 	c #866055",
"y 	c #52405A",
"z 	c #463A5B",
"A 	c #4B1E2A",
"B 	c #825337",
"C 	c #9E6F51",
"D 	c #7B5856",
"E 	c #CC8D47",
"F 	c #DA9643",
"G 	c #AB774F",
"H 	c #3D092A",
"I 	c #582C2B",
"J 	c #A76F36",
"K 	c #D7933F",
"L 	c #E09A41",
"M 	c #C98B48",
"N 	c #B17B4E",
"O 	c #6D5058",
"P 	c #5D4659",
"Q 	c #D29146",
"R 	c #D49245",
"S 	c #3C355B",
"T 	c #4E3E5A",
"U 	c #50384F",
"V 	c #592D2B",
"W 	c #6C3F2B",
"X 	c #B17636",
"Y 	c #DE993D",
"Z 	c #E59D40",
"` 	c #7C5956",
" .	c #6F5158",
"..	c #D79544",
"+.	c #855F55",
"@.	c #865F55",
"#.	c #B77F4C",
"$.	c #7E5B56",
"%.	c #A67450",
"&.	c #AA774F",
"*.	c #AA764F",
"=.	c #AA7547",
"-.	c #AC7336",
";.	c #AD722F",
">.	c #B1752F",
",.	c #CC8A36",
"'.	c #E19B3D",
").	c #E29C41",
"!.	c #33315B",
"~.	c #4F3F5A",
"{.	c #AB784F",
"].	c #40375B",
"^.	c #DE983D",
"/.	c #DE9836",
"(.	c #DF9832",
"_.	c #E29B35",
":.	c #E59D3C",
"<.	c #473B5B",
"[.	c #B27C4E",
"}.	c #7A5856",
"|.	c #CE8F47",
"1.	c #785757",
"2.	c #E59E3F",
"3.	c #E49D40",
"4.	c #E59E3C",
"5.	c #E69D35",
"6.	c #E69D33",
"7.	c #A9764F",
"8.	c #654B58",
"9.	c #735457",
"0.	c #493C5A",
"a.	c #E29C40",
"b.	c #DD9842",
"c.	c #E39D40",
"d.	c #BE844B",
"e.	c #CA8C48",
"f.	c #E49D3C",
"g.	c #E59C35",
"h.	c #E59C33",
"i.	c #916753",
"j.	c #48334F",
"k.	c #C78842",
"l.	c #CD8D41",
"m.	c #CC8C41",
"n.	c #B77D45",
"o.	c #845B4B",
"p.	c #AE7746",
"q.	c #DD983E",
"r.	c #CD8C41",
"s.	c #CD8B36",
"t.	c #CD8B31",
"u.	c #D39140",
"v.	c #DB963E",
"w.	c #BB8044",
"x.	c #7B544C",
"y.	c #45314F",
"z.	c #A77347",
"A.	c #C88942",
"B.	c #996949",
"C.	c #5C404E",
"D.	c #9C6B49",
"E.	c #B9804C",
"F.	c #6E5058",
"G.	c #2B2E5C",
"H.	c #3E1837",
"I.	c #623A37",
"J.	c #7C4F37",
"K.	c #815237",
"L.	c #845537",
"M.	c #7D5037",
"N.	c #6F4437",
"O.	c #B07636",
"P.	c #805137",
"Q.	c #81502C",
"R.	c #9F6936",
"S.	c #D38F36",
"T.	c #DA9536",
"U.	c #BC7F36",
"V.	c #7E5037",
"W.	c #583237",
"X.	c #502B37",
"Y.	c #5A3337",
"Z.	c #A87036",
"`.	c #D79236",
" +	c #CE8C36",
".+	c #653D37",
"++	c #A16A36",
"@+	c #D8943F",
"#+	c #44395B",
"$+	c #381037",
"%+	c #4E222A",
"&+	c #83522C",
"*+	c #A76E2E",
"=+	c #E29A35",
"-+	c #A66E36",
";+	c #815337",
">+	c #4A2537",
",+	c #431E37",
"'+	c #E39B35",
")+	c #AD7336",
"!+	c #9A6636",
"~+	c #6A4037",
"{+	c #B87C36",
"]+	c #D89336",
"^+	c #B2762F",
"/+	c #B77E45",
"(+	c #A86F2E",
"_+	c #D79232",
":+	c #DF9836",
"<+	c #D6933F",
"[+	c #302450",
"}+	c #6F4C4D",
"|+	c #B87E45",
"1+	c #D9953E",
"2+	c #E29B3C",
"3+	c #DF993D",
"4+	c #B37A45",
"5+	c #6C4A4D",
"6+	c #47324F",
"7+	c #855B4B",
"8+	c #CE8D41",
"9+	c #CE8C31",
"0+	c #CC8A31",
"a+	c #BA7D36",
"b+	c #7A544C",
"c+	c #AD732F",
"d+	c #E59D35",
"e+	c #E29B3D",
"f+	c #DF9A41",
"g+	c #845E55",
"h+	c #E39C3C",
"i+	c #D49036",
"j+	c #A26A2E",
"k+	c #82512C",
"l+	c #734737",
"m+	c #DE9732",
"n+	c #E19A35",
"o+	c #CB8B41",
"p+	c #BF844B",
"q+	c #D69444",
"r+	c #C0854A",
"s+	c #51405A",
"t+	c #B67E4D",
"u+	c #481A2A",
"v+	c #3A1337",
"w+	c #9C652E",
"x+	c #C98731",
"y+	c #C88736",
"z+	c #9D6C48",
"A+	c #835E55",
"B+	c #976A52",
"C+	c #DC9843",
"D+	c #DA9743",
"E+	c #DA963E",
"F+	c #75462C",
"G+	c #3F0D2A",
"H+	c #65382B",
"I+	c #7E4E2C",
"J+	c #684D58",
"K+	c #694E58",
"L+	c #DB9743",
"M+	c #B67D45",
"N+	c #51252B",
"O+	c #41102A",
"P+	c #7E574C",
"Q+	c #3F2D4F",
"                                                                                                                                ",
". . . . . . . . . . . . . . .       . . . . . . . . . . . . . . . . . . . . . . . . . . . . .       . . . . . . . . . . . . . . ",
"+ + + + + + + + + + + + + +       . + + + + + + + + + + + + + + + + + + + + + + + + + + + +       . + + + + + + + + + + + + + + ",
"@ @ @ @ @ @ @ @ @ @ @ @ @ + .     . + @ @ @ @ @ @ @ @ @ @ @ @ @ @ @ @ @ @ @ @ @ @ @ @ @ @ + .     . + @ @ @ @ @ @ @ @ @ @ @ @ @ ",
"@ @ @ @ @ @ @ @ @ @ @ @ @ + .     . + @ @ @ @ @ @ @ @ @ @ @ @ @ @ @ @ @ @ @ @ @ @ @ @ @ @ + .     . + @ @ @ @ @ @ @ @ @ @ @ @ @ ",
"@ @ @ @ @ @ @ @ @ @ @ @ @ + .     . + @ @ @ @ @ @ @ @ @ @ @ @ @ @ @ @ @ @ @ @ @ @ @ @ @ @ + .     . + @ @ @ @ @ @ @ @ @ @ @ @ @ ",
"@ @ @ @ @ @ @ @ @ @ @ @ @ + .     . + @ @ @ @ @ @ @ @ @ @ @ @ @ @ @ @ @ @ @ @ @ @ @ @ @ @ + .     . + @ @ @ @ @ @ @ @ @ @ @ @ @ ",
"@ @ @ @ @ @ @ @ @ @ @ @ @ + .     . + @ @ @ @ @ @ @ @ @ @ @ @ @ @ @ @ @ @ @ @ @ @ @ @ @ @ + .     . + @ @ @ @ @ @ @ @ @ @ @ @ @ ",
"@ @ @ @ @ @ @ @ @ @ @ @ @ + .     . + @ @ @ @ @ @ @ @ @ @ @ @ @ @ @ @ @ @ @ @ @ @ @ @ @ @ + .     . + @ @ @ @ @ @ @ @ @ @ @ @ @ ",
"@ @ @ @ @ @ @ @ @ @ @ @ @ + .     . + @ @ @ @ @ @ @ @ @ @ @ @ @ @ @ @ @ @ @ @ @ @ @ @ @ @ + .     . + @ @ @ @ @ @ @ @ @ @ @ @ @ ",
"@ @ @ @ @ @ @ @ @ @ @ @ @ + .     . + @ @ @ @ @ @ @ @ @ @ @ @ @ @ @ @ @ @ @ @ @ @ @ @ @ @ + .     . + @ @ @ @ @ @ @ @ @ @ @ @ @ ",
"@ @ @ @ @ @ @ @ @ @ @ @ @ + .     . + @ @ @ @ @ @ @ @ @ @ @ @ @ @ @ @ @ @ @ @ @ @ @ @ @ @ + .     . + @ @ @ @ @ @ @ @ @ @ @ @ @ ",
"@ @ @ @ @ @ @ @ @ @ @ @ @ + .     . + @ @ @ @ @ @ @ @ @ @ @ @ @ @ @ @ @ @ @ @ @ @ @ @ @ @ + .     . + @ @ @ @ @ @ @ @ @ @ @ @ @ ",
"@ @ @ @ @ @ @ @ @ @ @ @ @ + .     . + @ @ @ @ @ @ @ @ @ @ @ @ @ @ @ @ @ @ @ @ @ @ @ @ @ @ + .     . + @ @ @ @ @ @ @ @ @ @ @ @ @ ",
"@ @ @ @ @ @ @ @ @ @ @ @ @ + .     . + @ @ @ @ @ @ @ @ @ @ @ @ @ @ @ @ @ @ @ @ @ @ @ @ @ @ + .     . + @ @ @ @ @ @ @ @ @ @ @ @ @ ",
"@ @ @ @ @ @ @ @ @ @ @ @ @ + .     . + + + + + + + + + + + + + + + + + + + + + + + + + + + + .     . + + + + @ @ @ @ @ @ @ @ @ @ ",
"@ @ @ @ @ @ @ @ @ @ @ @ @ + .       . . . . . . . . . . . . . . . . . . . . . . # # # # . .         . . . . + @ @ @ @ @ @ @ @ @ ",
"@ @ @ @ @ @ @ @ @ @ @ @ @ @ . . . . . . . . . . . . . . . .         . . . . # $ % & & * = . . . . . . . . + + @ @ @ @ @ @ @ @ @ ",
"@ @ @ @ @ @ @ @ @ @ @ @ @ @ + + + + + + + + + + + + + + + + .     . + + + - ; > , ' ' ) ! ~ + + + + + + + + @ @ @ @ @ @ @ @ @ @ ",
"@ @ @ @ @ @ @ @ @ @ @ @ @ @ @ @ @ @ @ @ @ @ @ @ @ @ @ @ @ + .     . + @ { ] ^ / ( _ _ : < [ } @ @ @ @ @ @ @ @ @ @ @ @ @ @ @ @ @ ",
"@ @ @ @ @ @ @ @ @ @ @ @ @ @ @ @ @ @ @ @ @ @ @ @ @ @ @ @ @ + .     . + { | ^ 1 2 3 4 5 6 7 8 9 0 @ @ @ @ @ @ @ @ @ @ @ @ @ @ @ @ ",
"@ @ @ @ @ @ @ @ @ @ @ @ @ @ @ @ @ @ @ @ @ @ @ @ @ @ @ @ @ + .     . + a b / 2 c d d c 5 5 c 8 e f @ @ @ @ @ @ @ @ @ @ @ @ @ @ @ ",
"@ @ @ @ @ @ @ @ @ @ @ @ @ @ @ @ @ @ @ @ @ @ @ @ @ @ @ @ @ + .     . g h i j 3 d k l 8 : 6 5 m n 0 { @ @ @ @ @ @ @ @ @ @ @ @ @ @ ",
"@ @ @ @ @ @ @ @ @ @ @ @ @ @ @ @ @ @ @ @ @ @ @ @ @ @ @ @ @ + .   o p q k r 4 4 r s a e t u v w x y z } @ @ @ @ @ @ @ @ @ @ @ @ @ ",
"@ @ @ @ @ @ @ @ @ @ @ @ @ @ @ @ @ @ @ @ @ @ @ @ @ @ @ @ @ + .   A B , r c 5 5 c C e a D E v F 1 G < e } @ @ @ @ @ @ @ @ @ @ @ @ ",
"@ @ @ @ @ @ @ @ @ @ @ @ @ { { { { { { { { { { { { { { { { - # H I J K 4 5 L u M N O P t Q F : M R : < [ } @ @ @ @ @ @ @ @ @ @ @ ",
"@ @ @ @ @ @ @ @ @ @ @ { S h T T T T T T T T T T T T T T T U & V W X Y Z 5 : t `  .9 < : ../ +.@.#.j : 8 9 0 @ @ @ @ @ @ @ @ @ @ ",
"@ @ @ @ @ @ @ @ @ @ @ S $.%.&.*.*.*.*.*.*.*.*.*.*.*.*.*.*.=.-.;.>.,.'.).c 8 [ !.} ~.{.R #.$.].].$.#...c 8 e f @ @ @ @ @ @ @ @ @ ",
"@ @ @ @ @ @ @ @ @ @ { h %.2 4 4 4 4 4 4 4 4 4 4 4 4 4 4 4 ^./.(.(._.:.4 r l } @ { <.< [.}.| { { | +.|.6 m 1.} @ @ @ @ @ @ @ @ @ ",
"@ @ @ @ @ @ @ @ @ @ { T G 4 2.2.3.6 5 Z Z 5 6 3.2.2.2.2.2.4.5.6.6.5.4.4 7.T { @ @ !.8.9.0.{ @ @ } }.E a.: ` } @ @ @ @ @ @ @ @ @ ",
"@ @ @ @ @ @ @ @ @ @ { T &.b.3.c.( d.e.5 5 e.d.( c.3.3.3.3.f.g.h.h.g.f.4 *.~.f @ { | $.i.P } @ @ !.D E ).E ` } @ @ @ @ @ @ @ @ @ ",
"@ @ @ @ @ @ @ @ @ @ - j.) k.l.m.n.o.p.q.q.p.o.n.m.r.r.m.m.m.s.t.t.s.u.v.w.x.y.g g q z.A.B.C.~ ~ ! D.Q F E.F.G.@ @ @ @ @ @ @ @ @ ",
"@ @ @ @ @ @ @ @ @ + . H.I.J.K.L.M.N.O././.O.N.M.L.K.P.P.P.P.Q.Q.Q.Q.R.S.T.U.V.W.X.Y.Z.`. +R..+.+++ +@+/ ^ #+{ @ @ @ @ @ @ @ @ @ ",
"@ @ @ @ @ @ @ @ @ @ . . $+= %+&+*+>.,.=+=+,.O.-+;+>+H.= = = = = = ,+P.s.'+T.U.)+!+~+B {+]+,.^+^+t.]+/+$.S { @ @ @ @ @ @ @ @ @ @ ",
"@ @ @ @ @ @ @ @ @ @ + + + - % (+_+:+'.:.:.'.^.<+, q - + + + + + + [+}+|+1+2+3+u.4+5+6+7+8+'.T.9+0+a+b+S { @ @ @ @ @ @ @ @ @ @ @ ",
"@ @ @ @ @ @ @ @ @ @ @ @ @ - & c+(.d+e+5 3.).L 3 &.T { @ @ @ @ @ @ { #+D 1 f+f+1 ` z ].g+7 h+i+j+k+l+6+{ @ @ @ @ @ @ @ @ @ @ @ @ ",
"@ @ @ @ @ @ @ @ @ @ @ @ @ - & c+m+n+o+p+q+c r+u G ~.{ @ @ @ @ @ @ @ f s+&.b._ *.y ] b t+F h+s.Q.u+v+- @ @ @ @ @ @ @ @ @ @ @ @ @ ",
"@ @ @ @ @ @ @ @ @ @ @ @ @ - * w+x+y+z+A+[.8 g+[.< <.{ @ @ @ @ @ @ @ { z B+: C+1 +.g+t+D+a.E+a+F+G+. + @ @ @ @ @ @ @ @ @ @ @ @ @ ",
"@ @ @ @ @ @ @ @ @ @ @ @ @ + H.H+I+J.C.0.J+[ 0.K+P 0 @ @ @ @ @ @ @ @ @ } e < E 2 7 7 F a.L+M+M.N+o . + @ @ @ @ @ @ @ @ @ @ @ @ @ ",
"@ @ @ @ @ @ @ @ @ @ @ @ @ + . H O+= g { G.f { G.f @ @ @ @ @ @ @ @ @ @ @ } [ 8 c 6 v v F t+P+p o   . + @ @ @ @ @ @ @ @ @ @ @ @ @ ",
"@ @ @ @ @ @ @ @ @ @ @ @ @ + .     . + @ @ @ @ @ @ @ @ @ @ @ @ @ @ @ @ @ @ } 9 8 m : E E.^ Q+#     . + @ @ @ @ @ @ @ @ @ @ @ @ @ ",
"@ @ @ @ @ @ @ @ @ @ @ @ @ + .     . + @ @ @ @ @ @ @ @ @ @ @ @ @ @ @ @ @ @ @ 0 e 1.` ` F.#+- .     . + @ @ @ @ @ @ @ @ @ @ @ @ @ ",
"@ @ @ @ @ @ @ @ @ @ @ @ @ + .     . + @ @ @ @ @ @ @ @ @ @ @ @ @ @ @ @ @ @ @ @ f } } } G.{ + .     . + @ @ @ @ @ @ @ @ @ @ @ @ @ ",
"@ @ @ @ @ @ @ @ @ @ @ @ @ + .     . + @ @ @ @ @ @ @ @ @ @ @ @ @ @ @ @ @ @ @ @ @ @ @ @ @ @ + .     . + @ @ @ @ @ @ @ @ @ @ @ @ @ ",
"@ @ @ @ @ @ @ @ @ @ @ @ @ + .     . + @ @ @ @ @ @ @ @ @ @ @ @ @ @ @ @ @ @ @ @ @ @ @ @ @ @ + .     . + @ @ @ @ @ @ @ @ @ @ @ @ @ ",
"@ @ @ @ @ @ @ @ @ @ @ @ @ + .     . + @ @ @ @ @ @ @ @ @ @ @ @ @ @ @ @ @ @ @ @ @ @ @ @ @ @ + .     . + @ @ @ @ @ @ @ @ @ @ @ @ @ ",
"@ @ @ @ @ @ @ @ @ @ @ @ @ + .     . + @ @ @ @ @ @ @ @ @ @ @ @ @ @ @ @ @ @ @ @ @ @ @ @ @ @ + .     . + @ @ @ @ @ @ @ @ @ @ @ @ @ ",
"+ + + + + + + + + + + + + + .     . + + + + + + + + + + + + + + + + + + + + + + + + + + + + .     . + + + + + + + + + + + + + + ",
". . . . . . . . . . . . . .         . . . . . . . . . . . . . . . . . . . . . . . . . . . .         . . . . . . . . . . . . . . ",
". . . . . . . . . . . . . . . . . . . . . . . . . . . . . .         . . . . . . . . . . . . . . . . . . . . . . . . . . . . . . ",
"+ + + + + + + + + + + + + + + + + + + + + + + + + + + + + + .     . + + + + + + + + + + + + + + + + + + + + + + + + + + + + + + ",
"@ @ @ @ @ @ @ @ @ @ @ @ @ @ @ @ @ @ @ @ @ @ @ @ @ @ @ @ @ + .     . + @ @ @ @ @ @ @ @ @ @ @ @ @ @ @ @ @ @ @ @ @ @ @ @ @ @ @ @ @ ",
"@ @ @ @ @ @ @ @ @ @ @ @ @ @ @ @ @ @ @ @ @ @ @ @ @ @ @ @ @ + .     . + @ @ @ @ @ @ @ @ @ @ @ @ @ @ @ @ @ @ @ @ @ @ @ @ @ @ @ @ @ ",
"@ @ @ @ @ @ @ @ @ @ @ @ @ @ @ @ @ @ @ @ @ @ @ @ @ @ @ @ @ + .     . + @ @ @ @ @ @ @ @ @ @ @ @ @ @ @ @ @ @ @ @ @ @ @ @ @ @ @ @ @ ",
"@ @ @ @ @ @ @ @ @ @ @ @ @ @ @ @ @ @ @ @ @ @ @ @ @ @ @ @ @ + .     . + @ @ @ @ @ @ @ @ @ @ @ @ @ @ @ @ @ @ @ @ @ @ @ @ @ @ @ @ @ ",
"@ @ @ @ @ @ @ @ @ @ @ @ @ @ @ @ @ @ @ @ @ @ @ @ @ @ @ @ @ + .     . + @ @ @ @ @ @ @ @ @ @ @ @ @ @ @ @ @ @ @ @ @ @ @ @ @ @ @ @ @ ",
"@ @ @ @ @ @ @ @ @ @ @ @ @ @ @ @ @ @ @ @ @ @ @ @ @ @ @ @ @ + .     . + @ @ @ @ @ @ @ @ @ @ @ @ @ @ @ @ @ @ @ @ @ @ @ @ @ @ @ @ @ ",
"@ @ @ @ @ @ @ @ @ @ @ @ @ @ @ @ @ @ @ @ @ @ @ @ @ @ @ @ @ + .     . + @ @ @ @ @ @ @ @ @ @ @ @ @ @ @ @ @ @ @ @ @ @ @ @ @ @ @ @ @ ",
"@ @ @ @ @ @ @ @ @ @ @ @ @ @ @ @ @ @ @ @ @ @ @ @ @ @ @ @ @ + .     . + @ @ @ @ @ @ @ @ @ @ @ @ @ @ @ @ @ @ @ @ @ @ @ @ @ @ @ @ @ ",
"@ @ @ @ @ @ @ @ @ @ @ @ @ @ @ @ @ @ @ @ @ @ @ @ @ @ @ @ @ + .     . + @ @ @ @ @ @ @ @ @ @ @ @ @ @ @ @ @ @ @ @ @ @ @ @ @ @ @ @ @ ",
"@ @ @ @ @ @ @ @ @ @ @ @ @ @ @ @ @ @ @ @ @ @ @ @ @ @ @ @ @ + .     . + @ @ @ @ @ @ @ @ @ @ @ @ @ @ @ @ @ @ @ @ @ @ @ @ @ @ @ @ @ ",
"@ @ @ @ @ @ @ @ @ @ @ @ @ @ @ @ @ @ @ @ @ @ @ @ @ @ @ @ @ + .     . + @ @ @ @ @ @ @ @ @ @ @ @ @ @ @ @ @ @ @ @ @ @ @ @ @ @ @ @ @ ",
"@ @ @ @ @ @ @ @ @ @ @ @ @ @ @ @ @ @ @ @ @ @ @ @ @ @ @ @ @ + .     . + @ @ @ @ @ @ @ @ @ @ @ @ @ @ @ @ @ @ @ @ @ @ @ @ @ @ @ @ @ ",
"@ @ @ @ @ @ @ @ @ @ @ @ @ @ @ @ @ @ @ @ @ @ @ @ @ @ @ @ @ + .     . + @ @ @ @ @ @ @ @ @ @ @ @ @ @ @ @ @ @ @ @ @ @ @ @ @ @ @ @ @ "};
