/* XPM */
static char *b1a50bb42b854a3b886c7033865f5209txzLFOv2BzQT3O3z[] = {
/* columns rows colors chars-per-pixel */
"64 64 53 1 ",
"  c #1A130C",
". c #1C150F",
"X c #1E170E",
"o c #1E1C16",
"O c #1C171C",
"+ c #22190D",
"@ c #261B0D",
"# c #2B1E0E",
"$ c #291D15",
"% c #31220E",
"& c #3E290F",
"* c #25211F",
"= c #372610",
"- c #1C1A21",
"; c #1F1F30",
": c #2E0D2E",
"> c #310322",
", c #39002B",
"< c #330937",
"1 c #231D3F",
"2 c #272824",
"3 c #2D3230",
"4 c #53020E",
"5 c #6A0010",
"6 c #422B10",
"7 c #4A2F10",
"8 c #4F3312",
"9 c #543816",
"0 c #5E3E17",
"q c #453824",
"w c #6E491C",
"e c #764F1E",
"r c #271F50",
"t c #20254A",
"y c #20285A",
"u c #212A5D",
"i c #364243",
"p c #3E4D51",
"a c #344069",
"s c #465557",
"d c #475A5F",
"f c #4A6169",
"g c #546A71",
"h c #5A6D73",
"j c #820013",
"k c #81551F",
"l c #895A21",
"z c #956224",
"x c #B79E73",
"c c #617A87",
"v c #6E8A94",
"b c #6F8C96",
"n c #CEB486",
/* pixels */
",,,,,,,,,,,,,,,,,,,,,,,,,,,,,,,,,,,,,,,,,,,,,,,,,,,,,,,,,,,,,,,,",
"<<<<<<<<<<<<<<,,,,<<<<<<<<<<<<<<<<<<<<<<<<<<<<,,,,<<<<<<<<<<<<<<",
"rrrrrrrrrrrrrr<,,<rrrrrrrrrrrrrrrrrrrrrrrrrrrr<,,<rrrrrrrrrrrrrr",
"uuuuuuuuuuuuur<,,<ruuuuuuuuuuuuuuuuuuuuuuuuuur<,,<ruuuuuuuuuuuuu",
"uuuuuuuuuuuuur<,,<ruuuuuuuuuuuuuuuuuuuuuuuuuur<,,<ruuuuuuuuuuuuu",
"uuuuuuuyttttt1:>>:ruuuuuuuuuuuuuuuuuuuuuuuuuur:>>:1tttttyuuuuuuu",
"uuuuuuut;-O--OXXX-tuuuuuuyyyyyyyyyyyyyyuuuuuut-XXXO--O-;tuuuuuuu",
"uyttttt1Oo233332oO1tttttaaaaaaaaaaaaaaaattttt1Oo233332oO1tttttyu",
"ut;----O 2shhhhs2XO--OO3fccccccccccccccf3OO--OX2shhhhs2 O----;tu",
"ut-X*2222igccccgi2222*o3gccchgggggghcccg3o*222*igccccgi2222*X-tu",
"ut-*ippppsfghghfsppppi33dggdi333333idggd33ippppsfghghfsppppi*-tu",
"ut-*issspppppppppppppi33pffp*      *pffp33ipppppppppppppsssi*-tu",
"ut-$qqqq2x222222222222o2pffp2   X  2pffp2o*2222222222222qqqq$-tu",
"ut-@&77&@x  xxx   XXX  2pffp2 XXXX 2pffp2   x  xx   xxX@&77&@-tu",
"ut-@&77&@xxXxxXXxxXxxx 2pffp2 XXXX 2pffp2  XxXXxxXXXxx @&77&@-tu",
"ut-@&77&@xxXxxXXxxXxxxX2pffp2  XX  2pffp2XXxxXXxxXXXxxX@&77&@-tu",
"ut-@&77&@xxXxx@@xx@@xxx2pffp2      2pffp2@@x@@@xx@@@xxX@&77&@-tu",
"ut-@&77&@XxXxx##xx##xxx2idfs32222223sfdi2#xx###x###xxXX@&77&@-tu",
"ut-@&77&@Xxx@x##xx##xxx$3iddsppppppsddi3*#x###xx###xxXX@&77&@-tu",
"ut-@&77&@XXx@x@@xx@@xxx**3ippppppppppi3*$@x@@@xx@@xxXXX@&77&@-tu",
"ut-@&77&@XXxXxXXXxXXXxxXoo222222222222ooXXxXXXxxXXxxXXX@&77&@-tu",
"ut-@&77&@XXxXX.XXXXXXxXXXXX        XX XXXXXXXXxxXXxXXXX@&77&@-tu",
"ut-@&77&@XXXXXXXXXXXXXXXXXXXXXXXXXXXXXXXXXXXXXxXXXxXXXX@&77&@-tu",
"ut-@&77&@XXXXXXXXXXXXXXXXXXXXXXXXXXXXXXXXXXXXXXXXXXXXXX@&77&@-tu",
"ut-@&77&@XXXXXXXXXXXXXXXXXXXXXXXXXXXXXXXXX.XXXXXXXXXXXX@&77&@-tu",
"ut-@&77&@XXXXXXXXXXXXXXXXXXXXXXXXXXXXXXXXXXXXXXXXXXXXXX@&77&@-tu",
"ut-@&77&@XXXXXXXXXXXXXXXXXXXXXXXXXXXXXXXXXXXXXXXXXXXXXX@&77&@-tu",
"ut-@&77&@XXXXXXXXXXX.XXXXXXXXX.XXXXX.XXXXXXXXXXXXXXXXXX@&77&@-tu",
"ut-@&77&@XXXXXXXXXXXXXXXXXXXXXXXXXXXXXXXXXXXX.XXXXXXXXX@&77&@-tu",
"ut-@=66=@XXXXXXXXXXXXXXXXXXXXXXXXXXXXXXXXXXXXXXXXXXXXXX@=66=@-tu",
"ut-+#%%#+XXXXXXXXXXXXXXXXXXXXXXXXXXXXXjXXXXXXXXXXXXXXXX+#%%#+-tu",
"ut-+#%%#+XXXXXXXXXX.X.XXXXXXXXXjjjjjjjjXXXXXXXXXXXXXXXX+#%%#+-tu",
"ut-@=66=@XXxXXXXXXXXXXXXXXXXXXXjjjjjjjjjXXXXXXXXXXXXXXX@=66=@-tu",
"ut-@=66=@XXxXXnnXXXXxXXXxxXXXxX5jjjjjjjjXxXXXXXxXXXnXXX@=66=@-tu",
"ut-+#%%#+XXxXXnnXXXxxXXXxxXXxxX5jjjjjjjjXxxXXXXxxXXnnXX+#%%#+-tu",
"ut-X@##@XXxXXXnnXXXxxXXXxxXXxx55jjjjjjjjjxxxXXXxxXXnnXXX@##@X-tu",
"ut-X@##@XXxXXXnnXXXxxXXXxxXXxx444jjjjjjjjxxxXXXxxXXnnXXX@##@X-tu",
"ut-X@##@XXxXXnnnXXXxxXXxxxXXxx444jjjjjjjjxxxXXXxxxXnnnXX@##@X-tu",
"ut-X@##@XXxX@nnn@@@xx@@xx@@@xx4444jjjjjjjjxx@@@@xx@nnnXX@##@X-tu",
"ut-X@##@XxxX@nnn###xx##xx###xx4444jjjjjjjjjx####xx#nnnXX@##@X-tu",
"ut-X@##@XxXX@nnn##xxx##xx##xx#44444jjjjjjjjx###xxx#@nnnX@##@X-tu",
"ut-X+@@+XxXXnnn@@@xx@@@xx@@xx444444jjjjjjjjjj@@xxx@@XnnX+@@+X-tu",
"ut-XXXXXXXXXnnnXXXxxXXxxxXXxXXXXXXXXjjjjjjjjjjjjjjXXXXXXXXXXX-tu",
"ut;OXXXXXXXXXXXXXXXXXXXXXo*2333333332jjjjjjjjjjjjjjjXXXXXXXXO;tu",
"uyt1OX+@@+XX+@@@@@44444XX*isghhhhhhgsijjjjjjjjjjjjjjjjjj@+XO1tyu",
"uuut-+#%%#++#%%%%%44444  2sghhhhhhhhgs2jjjjjjjjjjjjjjjjjj#+-tuuu",
"uuut*#&66=++=66666644=4  3ghi333333ihg3 jjjjjjjjjjjjjjjjj&#*tuuu",
"rrr1*%677&##&77777744&#XX2dd2  XX  2dd2XX#&77777jjjjjjjjj6%*1rrr",
"<<<:$%677&##677777744&#++$33$+++++@$33$++#&777777776jjjjj6%$:<<<",
"<<<:$%7886%%6777778487&==================&7888777776jjjjj7%$:<<<",
"rrr1*=8008=%6777789009999999999999999999999009877776%=jjjj=*1rrr",
"uuut*=9009=#=66&&689900009000000000000000009986&&66=#jjjj9=*tuuu",
"uuut*=9009=##%%%%%=&788788878787878778787887&=jjjjjjjjjjj9=*tuuu",
"uuut*=9009=#%===66=&804909090090009009009008&jjjjjjjjjj009=*tuuu",
"uuut*=9009=%7990ww00ekkkkkkkkkkkkkkkkkkkkkkejjjjjj97%=9009=*tuuu",
"uuut*=9009&&900wllwwlzzzzzzzzzzzzzzzzzzzzzzljjjlw009&&9009=*tuuu",
"uuut*=900077900wllw44zzzzzzzzzzzzzzzzzzzzzzjjjllw000779009=*tuuu",
"uuut*=900088000wllw44zzzzzzzzzzzzzzzzzzzzzzlwwllw000880w09=*tuuu",
"uuut*=90w088000wllwwlzzzzzzzzzzzzzzzzzzzzzzlwwllw000880009=*tuuu",
"uuut*%6887667880ww99weeeeeeeeeeeeeeeeeeeeeew99ww0887667896%*tuuu",
"uuut-+@###@@###%==%%========================%%==%###@@###@+-tuuu",
"uuut-X*2333332oXO------------OOXXOO-------------Xo2333332*X-tuuu",
"uuut-*isfhhhhs2O1tttttttttttt1:>>:1tttttttttttt1O2shhhhfsi*-tuuu",
"uuut-2pgcvvbbh3-tuuuuuuuuuuuur<,,<ruuuuuuuuuuuut-3hbbvvcgp2-tuuu"
};
