/* XPM */
static char *b6df8ccabe1c4dfab9531cb0668de77a96LFanSX9YABtWtZ[] = {
/* columns rows colors chars-per-pixel */
"64 64 135 2 ",
"   c #1B130F",
".  c #1C150C",
"X  c #1B1510",
"o  c #1F1315",
"O  c #1C1B16",
"+  c #1F1118",
"@  c #1C161A",
"#  c #1C171E",
"$  c #1C191B",
"%  c #1B181C",
"&  c #1F191E",
"*  c #3B0000",
"=  c #22180D",
"-  c #251A0D",
";  c #2A1D0E",
":  c #2E1F0D",
">  c #200F15",
",  c #221015",
"<  c #2A1717",
"1  c #221318",
"2  c #241E1C",
"3  c #31210E",
"4  c #37240E",
"5  c #2F2210",
"6  c #24221C",
"7  c #372713",
"8  c #3D2810",
"9  c #1A1A21",
"0  c #1D1A21",
"q  c #1D1D30",
"w  c #1C1F3A",
"e  c #2F0D2D",
"r  c #330623",
"t  c #39002A",
"y  c #261121",
"u  c #261F20",
"i  c #2F0B30",
"p  c #330937",
"a  c #211B34",
"s  c #1D292C",
"d  c #1C2E34",
"f  c #1E213A",
"g  c #1F2C3D",
"h  c #2C2421",
"j  c #282824",
"k  c #3C2D23",
"l  c #2E302E",
"z  c #333025",
"x  c #3A372C",
"c  c #21233B",
"v  c #343C3B",
"b  c #4D0000",
"n  c #412A0F",
"m  c #442D10",
"M  c #482F11",
"N  c #4A3010",
"B  c #4E3212",
"V  c #4F3413",
"C  c #533715",
"Z  c #593811",
"A  c #5A3A15",
"S  c #5B3C17",
"D  c #443621",
"F  c #604018",
"G  c #614019",
"H  c #634219",
"J  c #6D481C",
"K  c #714A1B",
"L  c #754E1E",
"P  c #794F1C",
"I  c #50432E",
"U  c #5C4A2E",
"Y  c #564B37",
"T  c #5F4D33",
"R  c #6C5635",
"E  c #7F633B",
"W  c #261D40",
"Q  c #251D45",
"!  c #261F4E",
"~  c #271F50",
"^  c #1F254A",
"/  c #212649",
"(  c #20264F",
")  c #282A4A",
"_  c #273B41",
"`  c #202A51",
"'  c #212959",
"]  c #212A5C",
"[  c #394647",
"{  c #30454C",
"}  c #3F4D4F",
"|  c #40545A",
" . c #4C5959",
".. c #475D64",
"X. c #596767",
"o. c #50666E",
"O. c #526A72",
"+. c #596C71",
"@. c #58727A",
"#. c #63706E",
"$. c #6F7C78",
"%. c #80531B",
"&. c #81551E",
"*. c #925E1E",
"=. c #895A21",
"-. c #936022",
";. c #966323",
":. c #956224",
">. c #976425",
",. c #876A40",
"<. c #917346",
"1. c #93754A",
"2. c #9B7F54",
"3. c #918466",
"4. c #5F7981",
"5. c #637D87",
"6. c #658089",
"7. c #69838D",
"8. c #75898B",
"9. c #6C8891",
"0. c #6F8B95",
"q. c #73929C",
"w. c #7D99A0",
"e. c #7C9FAA",
"r. c #829390",
"t. c #8FA09C",
"y. c #83A6B2",
"u. c #85A9B5",
"i. c #8DAFBA",
"p. c #A4B6B2",
"a. c #ACBFBA",
"s. c #8DB3C0",
"d. c #8EB5C2",
"f. c #98BFCD",
"g. c #A7D0DE",
/* pixels */
"t t t t t t t t t t t t t t t t t t t t t t t t t t t t t t t t t t t t t t t t t t t t t t t t t t t t t t t t t t t t t t t t ",
"p p p p p p p p p p p p p p p t t t p p p p p p p p p p p p p p p p p p p p p p p p p p p p p t t t p p p p p p p p p p p p p p ",
"~ ~ ~ ~ ~ ~ ~ ~ ~ ~ ~ ~ ~ ~ t t t p ~ ~ ~ ~ ~ ~ ~ ~ ~ ~ ~ ~ ~ ~ ~ ~ ~ ~ ~ ~ ~ ~ ~ ~ ~ ~ ~ ~ t t t p ~ ~ ~ ~ ~ ~ ~ ~ ~ ~ ~ ~ ~ ~ ",
"] ] ] ] ] ] ] ] ] ] ] ] ] ~ p t t p ~ ] ] ] ] ] ] ] ] ] ] ] ] ] ] ] ] ] ] ] ] ] ] ] ] ] ] ~ p t t p ~ ] ] ] ] ] ] ] ] ] ] ] ] ] ",
"] ] ] ] ] ] ] ] ] ] ] ] ] ~ p t t p ~ ] ] ] ] ] ] ] ] ] ] ] ] ] ] ] ] ] ] ] ] ] ] ] ] ] ] ~ p t t p ~ ] ] ] ] ] ] ] ] ] ] ] ] ] ",
"] ] ] ] ] ] ] ] ] ] ] ] ] ~ p t t p ~ ] ] ] ] ] ] ] ] ] ] ] ] ] ] ] ] ] ] ] ] ] ] ] ] ] ] ~ p t t p ~ ] ] ] ] ] ] ] ] ] ] ] ] ] ",
"] ] ] ] ] ] ] ] ] ] ] ] ] ~ p t t p ~ ] ] ] ] ] ] ] ] ] ] ] ] ] ] ] ] ] ] ] ] ] ] ] ] ] ] ~ p t t p ~ ] ] ] ] ] ] ] ] ] ] ] ] ] ",
"] ] ] ] ] ] ] ] ] ] ] ] ] ~ p t t p ~ ] ] ] ] ] ] ] ] ] ] ] ] ] ] ] ] ] ] ] ] ] ] ] ] ] ] ~ p t t p ~ ] ] ] ] ] ] ] ] ] ] ] ] ] ",
"] ] ] ] ] ] ] ] ] ] ] ] ] ~ p t t p ~ ] ] ] ] ] ] ] ] ] ] ] ] ] ] ] ] ] ] ] ] ] ] ] ] ] ] ~ p t t p ~ ] ] ] ] ] ] ] ] ] ] ] ] ] ",
"] ] ] ] ] ] ] ' ( / / / / W e r r i ! ] ] ] ] ] ] ] ] ] ] ] ] ] ] ] ] ] ] ] ] ] ] ] ] ] ] ! i r r e W / / / / ( ' ] ] ] ] ] ] ] ",
"] ] ] ] ] ] ] ( q 0 0 0 0 & 1 , , y Q ] ] ] ] ] ] ] ] ] ] ] ] ] ] ] ] ] ] ] ] ] ] ] ] ] ] Q y , , 1 & 0 0 0 0 q ( ] ] ] ] ] ] ] ",
"] ] ] ] ] ' ( f $ . O O O O O O . o a ^ ^ / / / / / / / / / / / / / / / / / / / / / / ^ ^ a o . O O O O O O . $ f ( ' ] ] ] ] ] ",
"] ] ] ] ] ( q $ X O s s s s s s O   @ 9 9 0 u u u u u u u u u u u u u u u u u u u u 0 9 9 @   O s s s s s s O X $ q ( ] ] ] ] ] ",
"] ] ] ' ( c 2 - - 6 s d d d d s O = - - - ; 5 3 3 3 3 3 3 3 3 3 3 3 3 3 3 3 3 3 3 5 ; - - - = O s d d d d s 6 - - 2 c ( ' ] ] ] ",
"] ] ] ( q 2 7 n n 7 s d d d d s 6 : 4 8 8 8 n n n n n n n n n n n n n n n n n n n n 8 8 8 4 : 6 s d d d d l 7 n n 7 2 q ( ] ] ] ",
"] ' ( c 2 5 n N N D v _ _ _ _ l 6 3 n N N N N N N N N N N N N N N N N N N N N N N N N N N n 3 6 l _ _ _ _ l D N N n 5 2 c ( ' ] ",
"] ( q 2 7 n M N N D [ | | | | [ j 3 n N N N N N N N N N N N N N N N N N N N N N N N N N N n 3 j [ | | | | } D N N M n 7 2 q ( ] ",
"] / 0 - 4 n n n n D  .O.O.O.O. .z : 8 n n n n n n n n n n n n n n n n n n n n n n n n n n 8 : z  .O.O.O.O. .D n n n n 7 - 0 / ] ",
"] / 0 = ; 3 3 : : x X.6.6.6.6.X.x ; : 3 3 3 3 3 3 3 3 3 3 3 3 3 3 3 3 3 3 3 3 3 3 3 3 3 3 : ; x X.6.6.6.6.X.x : : 3 3 ; = 0 / ] ",
"] ^ 9 - 3 7 7 4 4 x X.6.5.5.6.X.x ; 3 7 7 7 7 7 7 7 7 7 7 7 7 7 7 7 7 7 7 7 7 7 7 7 7 7 7 3 ; x X.6.5.5.6.X.x 4 4 7 7 3 - 9 ^ ] ",
"] ^ u 5 M C C C C I  .O.o.o.O.| z 3 M C C C C C C C C C C C C C C C C C C C C C C C C C C m 3 z | O.o.o.O. .I C C C C M 5 u ^ ] ",
"] ^ u 7 C H H H H U  .o.o.o.o. .z 8 C H H H H H H H H H H H H H H H H H H H H H H H H H H C 8 z  .o.o.o.O. .U H H H H C 7 u ^ ] ",
"] ^ u 7 C H H H H T #.5.5.5.5.X.I M A H H H H H H S H H H H H H H H H H H H H H H H H H H A M I X.5.5.5.5.#.T H H H H C 7 u ^ ] ",
"] ^ u 8 S K J J J R $.9.9.9.9.#.I V H J J J J J J J J J J J J J J J J J J J J J J J J J J H V I #.9.9.9.9.$.R J J J K S 8 u ^ ] ",
"] ^ u n K =.=.=.=.E $.9.9.9.9.#.I Z P =.=.=.=.=.=.=.=.=.=.=.=.=.=.=.=.=.=.=.=.=.=.=.=.=.=.P Z I #.9.9.9.9.$.E =.=.=.=.K n u ^ ] ",
"] ^ u 8 J &.&.&.&.E $.9.9.9.9.#.I Z K &.&.&.&.&.&.&.&.&.&.&.&.&.&.&.&.&.&.&.&.&.&.&.&.&.&.K Z I #.9.9.9.7.$.E &.&.&.&.J 8 u ^ ] ",
"] ^ u 7 B A A A Z T #.9.7.9.9.#.I N C A A A A A A A A A A A A A A A A A A A A A A A A A A C N I #.9.9.7.9.#.T Z A A A B 7 u ^ ] ",
"] ) h 8 V A A Z Z T $.q.q.q.q.$.I N C A A A A A A A A A A A A A A A A A A A A A A A A A A Z N I $.q.q.q.q.$.T Z Z A A V 8 h ) ] ",
"] ) k V K &.&.%.%.,.r.u.u.u.u.8.Y C K &.&.&.&.&.&.&.&.&.&.&.&.&.&.&.&.&.&.&.&.&.&.&.&.&.&.K C Y 8.u.u.u.u.r.,.%.%.&.&.K V k ) ] ",
"] ) k A &.:.:.:.-.<.r.u.u.u.u.8.Y Z &.:.:.:.:.:.:.:.:.:.:.:.:.:.:.:.:.:.:.:.:.:.:.:.:.:.:.&.Z Y 8.u.u.u.u.r.<.-.:.:.:.&.A k ) ] ",
"] ) k A &.:.:.:.:.,.$.q.q.q.q.$.I Z &.:.:.:.:.:.:.:.:.:.:.:.:.:.:.:.:.:.:.:.:.:.:.:.:.:.:.&.Z I $.q.q.q.q.$.,.:.:.:.:.&.A k ) ] ",
"] ) k A &.:.:.-.-.<.$.q.q.q.q.$.I Z &.:.:.-.-.-.-.-.-.-.-.-.-.-.-.-.-.-.-.-.-.-.-.-.-.:.:.&.Z I $.q.q.q.q.8.,.-.-.:.:.&.A k ) ] ",
"] ) k A &.:.:.-.-.<.r.u.y.u.u.8.Y Z %.:.:.-.:.:.-.:.:.-.:.:.-.:.:.-.:.:.-.:.:.-.:.:.-.:.:.%.Z Y 8.u.u.y.u.r.<.-.-.:.:.&.A k ) ] ",
"] ) k A &.;.-.*.*.<.t.d.s.d.d.r.Y Z %.:.-.-.-.-.-.-.-.-.-.-.-.-.-.-.-.-.-.-.-.-.-.-.-.-.:.%.Z Y r.d.d.s.d.t.<.*.*.-.;.&.A k ) ] ",
"] ) k A &.;.-.*.*.<.t.s.s.s.d.r.Y Z %.-.-.-.*.*.*.*.*.*.*.*.*.*.*.*.*.*.*.*.*.*.*.*.-.-.-.%.Z Y r.d.s.s.s.t.<.*.*.-.;.&.A k ) ] ",
"] ) k C R ,.<.1.1.3.t.s.s.s.d.w.X.R ,.1.1.1.2.2.2.2.2.2.2.2.2.2.2.2.2.2.2.2.2.2.2.2.1.1.1.,.R X.w.d.s.s.d.t.3.1.1.<.,.R C k ) ] ",
"] ` g v } #.r.t.t.t.i.s.s.s.s.u.w.r.t.t.t.t.p.a.a.a.a.a.a.a.a.a.a.a.a.a.a.a.a.a.a.p.t.t.t.t.r.w.u.s.s.s.s.i.t.t.t.r.#.} v g ` ] ",
"] ` g _ | @.q.e.e.e.e.e.y.y.y.y.u.u.u.y.u.s.f.g.g.g.g.g.f.s.s.s.s.s.s.f.g.g.g.g.g.f.i.u.y.u.u.u.y.y.y.y.e.e.e.e.e.0.@.| _ g ` ] ",
"] ` g _ | o.@.@.@.@.@.4.9.q.q.q.q.q.q.q.q.q.w.y.d.f.f.y.@.| ........| @.y.f.f.d.y.w.q.q.q.q.q.q.q.q.q.9.4.@.@.@.@.@.o.| _ g ` ] ",
"] ` g _ | ............o.5.9.9.9.9.9.9.9.9.9.7.0.e.u.u.9.{ s s d d d s { 9.u.u.e.0.7.9.9.9.9.9.9.9.9.9.5.o.............| _ g ` ] ",
"] ` g _ | ............o.5.9.9.9.9.9.9.9.9.9.9.9.0.q.q.4.{ d d d d s d { 4.q.q.0.9.9.9.9.9.9.9.9.9.9.9.5.o...........o.| _ g ` ] ",
"] ` g d [ } } } } } } | o.+.+.+.+.+.+.+.+.+.4.6.7.9.9.@.{ d d d d d d { @.9.9.7.6.4.+.+.+.+.+.+.+.+.+.X.| } } } } } } [ d g ` ] ",
"] / 0 6 6 j j j j j j j l l l l l l l l l v ..@.6.9.9.@.{ d d d d d d { @.9.9.6.@...v l l l l l l l l l j j j j j j j 6 6 0 / ] ",
"] ( q $ X . . . . . . . . . . . . . . . . 6 v ..4.9.9.@.{ d d d d d d { @.9.9.4...v 6 . . . . . . . . . . . . . . . . X $ q ( ] ",
"] ' ( f % . = - - = . . = - - - - - * * * * 6 v @.0.0.@.{ d d d d d d { @.0.0.@.v 6 - - - - - - - - - = . . = - - = . % f ( ' ] ",
"] ] ] ^ 0 - : 3 3 : = = : 3 3 3 3 3 * * * * . l o.7.9.4.| { { { { { { | 4.9.7.o.l . ; 3 3 3 3 3 3 3 3 : = = : 3 3 : - 0 ^ ] ] ] ",
"] ] ] ^ u : 8 m m 4 - - 4 m n n n n b b b * = j | @.7.7.4.@.@.@.@.@.@.4.7.7.@.| j = 4 m n n n n n n m 4 - - 4 m m 8 : u ^ ] ] ] ",
"~ ~ ~ W 2 3 n N N 8 ; ; 8 N N N N N M b b n ; 6 v | X.+.+.+.+.+.+.+.+.+.+.X.| v 6 ; n N N M N N N N N 8 ; ; 8 N N n 3 2 W ~ ~ ~ ",
"p p p e < 3 n N N n : : n N N M M M M b b n : ; j z x x x x x x x x x x x x z j ; : n N M M M M M N N n : : n N N n 3 < e p p p ",
"p p p e < 3 m V V m 3 3 n N N M M N B b V M 8 7 4 4 4 4 4 7 7 7 7 7 7 7 4 4 4 4 7 8 M V V B N M M N N n 3 3 m V V m 3 < e p p p ",
"~ ~ ~ W 2 7 V S S V 7 3 n N N M M B A S S A C C C C C C C C C C C C C C C C C C C C S S S A B M M N N n 3 7 V S S V 7 2 W ~ ~ ~ ",
"] ] ] / u 7 C H H C 7 : 8 n n n n m V C A S S S S S S S S S S S S S S S S S S S S S S A C V m n n n n 8 : 7 C H H C 7 u / ] ] ] ",
"] ] ] / u 7 C H H C 7 ; : 3 3 3 5 5 7 8 M B B B B B B B B B B B B B B B B B B B B B B M 8 7 5 5 3 3 3 : ; 7 C H H C 7 u / ] ] ] ",
"] ] ] / u 7 C H H C 7 ; 3 7 7 7 n n 7 8 V A b A A A A A A A A A A A A A A A A A A A A V 8 7 n n 7 7 7 3 ; 7 C H H C 7 u / ] ] ] ",
"] ] ] / u 7 C H H C 7 3 M C C S K K S S L &.&.&.&.&.&.&.&.&.&.&.&.&.&.&.&.&.&.&.&.&.&.L S S K K S C C M 3 7 C H H C 7 u / ] ] ] ",
"] ] ] / u 7 C H H C 8 8 C H H J =.=.J J =.:.:.:.:.:.:.:.:.:.:.:.:.:.:.:.:.:.:.:.:.:.:.=.J J =.=.J H H C 8 8 C H H C 7 u / ] ] ] ",
"] ] ] / u 7 C H H A M M A H H J =.=.J b b :.:.:.:.:.:.:.:.:.:.:.:.:.:.:.:.:.:.:.:.:.:.=.J J =.=.J H H A M M A H H C 7 u / ] ] ] ",
"] ] ] / u 7 C H H S V V S H H J =.=.J b b :.;.:.:.:.:.:.:.:.:.:.:.:.:.:.:.:.:.:.:.;.:.=.J J =.=.J H H S V V S H H C 7 u / ] ] ] ",
"] ] ] / u 7 C H H S V V S H H K =.=.J J =.>.:.;.;.;.;.;.;.;.;.;.;.;.;.;.;.;.;.;.;.:.>.=.J J =.=.K H H S V V S H H C 7 u / ] ] ] ",
"] ] ] / u 5 m V V N n n N V V S J J A A J L L L L L L L L L L L L L L L L L L L L L L J A A J J S V V N n n N V V m 5 u / ] ] ] ",
"] ] ] / 0 = ; ; ; ; - - ; ; ; 5 7 7 5 5 7 7 7 7 7 7 7 7 7 7 7 7 7 7 7 7 7 7 7 7 7 7 7 7 5 5 7 7 5 ; ; ; - - ; ; ; ; = 0 / ] ] ] ",
"] ] ] / 0 O 6 j l l l l l j O X % 9 9 9 9 9 9 9 9 9 9 9 9 # + > > + # 9 9 9 9 9 9 9 9 9 9 9 9 % X O j l l l l l j 6 O 0 / ] ] ] ",
"] ] ] / 0 6 v | o.+.+.+.+. .j % w ^ ^ ^ ^ ^ ^ ^ ^ ^ ^ ^ ^ W e r r e W ^ ^ ^ ^ ^ ^ ^ ^ ^ ^ ^ ^ w % j  .+.+.+.+.o.| v 6 0 / ] ] ] ",
"] ] ] / 0 j } O.6.0.0.0.0.+.l 0 ^ ] ] ] ] ] ] ] ] ] ] ] ] ~ p t t p ~ ] ] ] ] ] ] ] ] ] ] ] ] ^ 0 l +.0.0.0.0.6.O.} j 0 / ] ] ] "
};
