/* XPM */
static char * player2_64x64_xpm[] = {
"64 64 28 1",
" 	c #39002A",
".	c #330937",
"+	c #271F50",
"@	c #212A5C",
"#	c #DBDBE2",
"$	c #8A8A8F",
"%	c #B6B6B6",
"&	c #53535A",
"*	c #EFC193",
"=	c #301C19",
"-	c #BC8356",
";	c #633724",
">	c #4CB528",
",	c #524238",
"'	c #AB9A6E",
")	c #766A55",
"!	c #8F4F34",
"~	c #4B2F25",
"{	c #673D31",
"]	c #C8BCB4",
"^	c #8B6B1C",
"/	c #F1C146",
"(	c #5A440D",
"_	c #34343A",
":	c #007DFF",
"<	c #F1F1F1",
"[	c #7F7873",
"}	c #9C604C",
"                                                                ",
"...............   .............................   ..............",
"++++++++++++++   .++++++++++++++++++++++++++++   .++++++++++++++",
"@@@@@@@@@@@@@+.  .+@@@@@@@@@@@@@@@@@@@@@@@@@@+.  .+@@@@@@@@@@@@@",
"@@@@@@@@@@@@@+.  .+@@@@@@@@@@@@@@@@@@@@@@@@@@+.  .+@@@@@@@@@@@@@",
"@@@@@@@@@@@@@+.  .+@@@@@@@@@@@@@@@@@@@@@@@@@@+.  .+@@@@@@@@@@@@@",
"@@@@@@@@@@@@@+.  .+@@@@@@@@@@@@@@@@@@@@@@@@@@+.  .+@@@@@@@@@@@@@",
"@@@@@@@@@@@@@+.  .+@@@@@@@@@@@@@@@@@@@@@@@@@@+.  .+@@@@@@@@@@@@@",
"@@@@@@@@@@@@@+.  .+@@@@@@@@#######$@@@@@@@@@@+.  .+@@@@@@@@@@@@@",
"@@@@@@@@@@@@@+.  .+@@@@@@@#######$$@@@@@@@@@@+.  .+@@@@@@@@@@@@@",
"@@@@@@@@@@@@@+.  .+@@@@@@#######$$###@@@@@@@@+.  .+@@@@@@@@@@@@@",
"@@@@@@@@@@@@@+.  .+@@@@@%######%######@@@@@@@+.  .+@@@@@@@@@@@@@",
"@@@@@@@@@@@@@+.  .+@@@@&%%%#########%$$@@@@@@+.  .+@@@@@@@@@@@@@",
"@@@@@@@@@@@@@+.  .+@@@@&&%%%%########%$@@@@@@+.  .+@@@@@@@@@@@@@",
"@@@@@@@@@@@@@+.  .+@@@@@&%%%%%########$@@@@@@+.  .+@@@@@@@@@@@@@",
"@@@@@@@@@@@@@+.  .++++++&%%%$$****####$+++++++.  .++++@@@@@@@@@@",
"@@@@@@@@@@@@@+.   .....=$$*$$******$&#$.......    ....+@@@@@@@@@",
"@@@@@@@@@@@@@@.........=$$*$$-;;**;$&&&..............++@@@@@@@@@",
"@@@@@@@@@@@@@@+++++++++=$=$$$*#;**#&&+++++++++++++++++@@@@@@@@@@",
"@@@@@@@@@@@@@@@@@@@@@@@=====**#>**#&@@@@@@@@@@@@@@@@@@@@@@@@@@@@",
"@@@@@@@@@@@@@@@@@@@@@@@@@===-******&@@@@@@@@@@@@@@@@@@@@@@@@@@@@",
"@@@@@@@@@@@@@@@@@@@@@@@@@@=;;-****+@@@@@@@@@@@@@@@@@@@@@@@@@@@@@",
"@@@@@@@@@@@@@@@@@@@@@@@@@@@==---;.+@@@@@@@@@@@@@@@@@@@@@@@@@@@@@",
"@@@@@@@@@@@@@@@@@@@@@@@@@@,'''**-',@@@@@@@@@@@@@@@@@@@@@@@@@@@@@",
"@@@@@@@@@@@@@@@@@@@@@@@@@,'''''**-',@@@@@@@@@@@@@@@@@@@@@@@@@@@@",
"@@@@@@@@@@@@@@@@@@@@@@@@,'''''''))'',@@@@@@@@@@@@@@@@@@@@@@@@@@@",
"@@@@@@@@@@@@@@@@@@@@@@@)'''',''''''',@@@@@@@@@@@@@@@@@@@@@@@@@@@",
"@@@@@@@@@@@@@@@@@@@@@,,))''',)'''''',@@@@@@@@@@@@@@@@@@@@@@@@@@@",
"@@@@@@@@@@@@@@@@@@@@@,''')',==)'''''=@@@@@@@@@@@@@@@@@@@@@@@@@@@",
"@@@@@@@@@@@@@@@@@@@@@,,''',===,,)))==@@@@@@@@@@@@@@@@@@@@@@@@@@@",
"@@@@@@@@@@@@@@@@@@@@@,-**!@===,))))===@@@@@@@@@@@@@@@@@@@@@@@@@@",
"@@@@@@@@@@+++++++++++!***!++~~{{{]]{==++++++++++++@@@@@@@@@@@@@@",
"@@@@@@@@@+...........!**-!..~~{{{]{{==............+@@@@@@@@@@@@@",
"@@@@@@@@@@....    ...!**!...^^{{{]]{,==.......   .+@@@@@@@@@@@@@",
"@@@@@@@@@@++++.  .++^^**!++^/^)))))))===++++++.  .+@@@@@@@@@@@@@",
"@@@@@@@@@@@@@+.  .+^//****^//^)))))))===@@@@@+.  .+@@@@@@@@@@@@@",
"@@@@@@@@@@@@@+.  .+@^/****(//__))))))===@@@@@+.  .+@@@@@@@@@@@@@",
"@@@@@@@@@@@@@+.  .+@^^***((::$$___,,,===@@@@@+.  .+@@@@@@@@@@@@@",
"@@@@@@@@@@@@@+.  .+@@@!!!((::$$$$$___=@@@@@@@+.  .+@@@@@@@@@@@@@",
"@@@@@@@@@@@@@+.  .+@@@@@@^//^&&&$$$$$___@@@@@+.  .+@@@@@@@@@@@@@",
"@@@@@@@@@@@@@+.  .+@@@@@@^//^&&&&&&$$$%%&&&@@+.  .+@@@@@@@@@@@@@",
"@@@@@@@@@@@@@+.  .+@@@@@@^/^^___&&&&&&%%%%%&&&.  .+@@@@@@@@@@@@@",
"@@@@@@@@@@@@@+.  .+@@@@@@^^^{{==___&&&&&$%%%<<$$$.+@@@@@@@@@@@@@",
"@@@@@@@@@@@@@+.  .+@@@@@@={{{=@=~~~___&&&&&$<<<<<$$@@@@@@@@@@@@@",
"@@@@@@@@@@@@@+.  .+@@@@@=~{{{=@=~~~=@@___&&&&&$<<<<$$@@@@@@@@@@@",
"@@@@@@@@@@@@@+.  .+@@@@@={{{=@@=~~~=@@@@@___&&&&&$<<$$@@@@@@@@@@",
"@@@@@@@@@@@@@+.  .+@@@@@={{{=@@=~~=@@@@@@@@@___&&&$<<$@@@@@@@@@@",
"++++++++++++++.  .++++++={{~=++~~~=+++++++++++._____$+++++++++++",
"..............    ......={{=..=~~~=...........    ..............",
".......................=~{{=..=~~=..............................",
"+++++++++++++++++++++++=~{{=++=~~=++++++++++++++++++++++++++++++",
"@@@@@@@@@@@@@@@@@@@@@@@={{~=@+=~~=+@@@@@@@@@@@@@@@@@@@@@@@@@@@@@",
"@@@@@@@@@@@@@@@@@@@@@@@={{=@@+=~~=+@@@@@@@@@@@@@@@@@@@@@@@@@@@@@",
"@@@@@@@@@@@@@@@@@@@@@@~]]{=@@+=~[[=@@@@@@@@@@@@@@@@@@@@@@@@@@@@@",
"@@@@@@@@@@@@@@@@@@@@@{}}}}{@@+={{{{=@@@@@@@@@@@@@@@@@@@@@@@@@@@@",
"@@@@@@@@@@@@@@@@@@@@{}}}}}{@@+={{{{{=@@@@@@@@@@@@@@@@@@@@@@@@@@@",
"@@@@@@@@@@@@@@@@@@@@@@@@@@@@@+.  .+@@@@@@@@@@@@@@@@@@@@@@@@@@@@@",
"@@@@@@@@@@@@@@@@@@@@@@@@@@@@@+.  .+@@@@@@@@@@@@@@@@@@@@@@@@@@@@@",
"@@@@@@@@@@@@@@@@@@@@@@@@@@@@@+.  .+@@@@@@@@@@@@@@@@@@@@@@@@@@@@@",
"@@@@@@@@@@@@@@@@@@@@@@@@@@@@@+.  .+@@@@@@@@@@@@@@@@@@@@@@@@@@@@@",
"@@@@@@@@@@@@@@@@@@@@@@@@@@@@@+.  .+@@@@@@@@@@@@@@@@@@@@@@@@@@@@@",
"@@@@@@@@@@@@@@@@@@@@@@@@@@@@@+.  .+@@@@@@@@@@@@@@@@@@@@@@@@@@@@@",
"@@@@@@@@@@@@@@@@@@@@@@@@@@@@@+.  .+@@@@@@@@@@@@@@@@@@@@@@@@@@@@@",
"@@@@@@@@@@@@@@@@@@@@@@@@@@@@@+.  .+@@@@@@@@@@@@@@@@@@@@@@@@@@@@@"};
