/* XPM */
static char *bca3332d48cd4a3be56a11949627c76fOgfy8mSNtHzUnfOn[] = {
/* columns rows colors chars-per-pixel */
"64 64 28 1 ",
"  c #301C19",
". c #39002A",
"X c #330937",
"o c #34343A",
"O c #4B2F25",
"+ c #633724",
"@ c #673D31",
"# c #5A440D",
"$ c #524238",
"% c #271F50",
"& c #212A5C",
"* c #53535A",
"= c #766A55",
"- c #7F7873",
"; c #8B6B1C",
": c #8F4F34",
"> c #9C604C",
", c #4CB528",
"< c #BC8356",
"1 c #AB9A6E",
"2 c #F1C146",
"3 c #007DFF",
"4 c #8A8A8F",
"5 c #B6B6B6",
"6 c #C8BCB4",
"7 c #EFC193",
"8 c #DBDBE2",
"9 c #F1F1F1",
/* pixels */
"................................................................",
"XXXXXXXXXXXXXXX...XXXXXXXXXXXXXXXXXXXXXXXXXXXXX...XXXXXXXXXXXXXX",
"%%%%%%%%%%%%%%...X%%%%%%%%%%%%%%%%%%%%%%%%%%%%...X%%%%%%%%%%%%%%",
"&&&&&&&&&&&&&%X..X%&&&&&&&&&&&&&&&&&&&&&&&&&&%X..X%&&&&&&&&&&&&&",
"&&&&&&&&&&&&&%X..X%&&&&&&&&&&&&&&&&&&&&&&&&&&%X..X%&&&&&&&&&&&&&",
"&&&&&&&&&&&&&%X..X%&&&&&&&&&&&&&&&&&&&&&&&&&&%X..X%&&&&&&&&&&&&&",
"&&&&&&&&&&&&&%X..X%&&&&&&&&&&&&&&&&&&&&&&&&&&%X..X%&&&&&&&&&&&&&",
"&&&&&&&&&&&&&%X..X%&&&&&&&&&&&&&&&&&&&&&&&&&&%X..X%&&&&&&&&&&&&&",
"&&&&&&&&&&&&&%X..X%&&&&&&&&&&48888888&&&&&&&&%X..X%&&&&&&&&&&&&&",
"&&&&&&&&&&&&&%X..X%&&&&&&&&&&448888888&&&&&&&%X..X%&&&&&&&&&&&&&",
"&&&&&&&&&&&&&%X..X%&&&&&&&&888448888888&&&&&&%X..X%&&&&&&&&&&&&&",
"&&&&&&&&&&&&&%X..X%&&&&&&&88888858888885&&&&&%X..X%&&&&&&&&&&&&&",
"&&&&&&&&&&&&&%X..X%&&&&&&445888888888555*&&&&%X..X%&&&&&&&&&&&&&",
"&&&&&&&&&&&&&%X..X%&&&&&&45888888885555**&&&&%X..X%&&&&&&&&&&&&&",
"&&&&&&&&&&&&&%X..X%&&&&&&48888888855555*&&&&&%X..X%&&&&&&&&&&&&&",
"&&&&&&&&&&&&&%X..X%%%%%%%48888777744555*%%%%%%X..X%%%%&&&&&&&&&&",
"&&&&&&&&&&&&&%X...XXXXXXX48*477777744744 XXXXX....XXXX%&&&&&&&&&",
"&&&&&&&&&&&&&&XXXXXXXXXXX***4+77++<44744 XXXXXXXXXXXX%%&&&&&&&&&",
"&&&&&&&&&&&&&&%%%%%%%%%%%%%**877+87444 4 %%%%%%%%%%%%%&&&&&&&&&&",
"&&&&&&&&&&&&&&&&&&&&&&&&&&&&*877,877     &&&&&&&&&&&&&&&&&&&&&&&",
"&&&&&&&&&&&&&&&&&&&&&&&&&&&&*777777<   &&&&&&&&&&&&&&&&&&&&&&&&&",
"&&&&&&&&&&&&&&&&&&&&&&&&&&&&&%7777<++ &&&&&&&&&&&&&&&&&&&&&&&&&&",
"&&&&&&&&&&&&&&&&&&&&&&&&&&&&&%X+<<<  &&&&&&&&&&&&&&&&&&&&&&&&&&&",
"&&&&&&&&&&&&&&&&&&&&&&&&&&&&&$1<77111$&&&&&&&&&&&&&&&&&&&&&&&&&&",
"&&&&&&&&&&&&&&&&&&&&&&&&&&&&$1<7711111$&&&&&&&&&&&&&&&&&&&&&&&&&",
"&&&&&&&&&&&&&&&&&&&&&&&&&&&$11==1111111$&&&&&&&&&&&&&&&&&&&&&&&&",
"&&&&&&&&&&&&&&&&&&&&&&&&&&&$1111111$1111=&&&&&&&&&&&&&&&&&&&&&&&",
"&&&&&&&&&&&&&&&&&&&&&&&&&&&$111111=$111==$$&&&&&&&&&&&&&&&&&&&&&",
"&&&&&&&&&&&&&&&&&&&&&&&&&&& 11111=  $1=111$&&&&&&&&&&&&&&&&&&&&&",
"&&&&&&&&&&&&&&&&&&&&&&&&&&&  ===$$   $111$$&&&&&&&&&&&&&&&&&&&&&",
"&&&&&&&&&&&&&&&&&&&&&&&&&&   ====$   &:77<$&&&&&&&&&&&&&&&&&&&&&",
"&&&&&&&&&&%%%%%%%%%%%%%%%%  @66@@@OO%%:777:%%%%%%%&&&&&&&&&&&&&&",
"&&&&&&&&&%XXXXXXXXXXXXXXXX  @@6@@@OOXX:<77:XXXXXXX%&&&&&&&&&&&&&",
"&&&&&&&&&&XXXX....XXXXXXX  $@66@@@;;XXX:77:XXX...X%&&&&&&&&&&&&&",
"&&&&&&&&&&%%%%X..X%%%%%%   =======;2;%%:77;;%%X..X%&&&&&&&&&&&&&",
"&&&&&&&&&&&&&%X..X%&&&&&   =======;22;777722;%X..X%&&&&&&&&&&&&&",
"&&&&&&&&&&&&&%X..X%&&&&&   ======oo22#77772;&%X..X%&&&&&&&&&&&&&",
"&&&&&&&&&&&&&%X..X%&&&&&   $$$ooo4433##777;;&%X..X%&&&&&&&&&&&&&",
"&&&&&&&&&&&&&%X..X%&&&&&&& ooo4444433##:::&&&%X..X%&&&&&&&&&&&&&",
"&&&&&&&&&&&&&%X..X%&&&&&ooo44444***;22;&&&&&&%X..X%&&&&&&&&&&&&&",
"&&&&&&&&&&&&&%X..X%&&***55444******;22;&&&&&&%X..X%&&&&&&&&&&&&&",
"&&&&&&&&&&&&&%X..X***55555******ooo;;2;&&&&&&%X..X%&&&&&&&&&&&&&",
"&&&&&&&&&&&&&%X444995554*****ooo  @@;;;&&&&&&%X..X%&&&&&&&&&&&&&",
"&&&&&&&&&&&&&44999994*****oooOOO & @@@ &&&&&&%X..X%&&&&&&&&&&&&&",
"&&&&&&&&&&&4499994*****ooo&& OOO & @@@O &&&&&%X..X%&&&&&&&&&&&&&",
"&&&&&&&&&&44994*****ooo&&&&& OOO && @@@ &&&&&%X..X%&&&&&&&&&&&&&",
"&&&&&&&&&&4994***ooo&&&&&&&&& OO && @@@ &&&&&%X..X%&&&&&&&&&&&&&",
"%%%%%%%%%%%4oooooX%%%%%%%%%%% OOO%% O@@ %%%%%%X..X%%%%%%%%%%%%%%",
"XXXXXXXXXXXXXX....XXXXXXXXXXX OOO XX @@ XXXXXX....XXXXXXXXXXXXXX",
"XXXXXXXXXXXXXXXXXXXXXXXXXXXXXX OO XX @@O XXXXXXXXXXXXXXXXXXXXXXX",
"%%%%%%%%%%%%%%%%%%%%%%%%%%%%%% OO %% @@O %%%%%%%%%%%%%%%%%%%%%%%",
"&&&&&&&&&&&&&&&&&&&&&&&&&&&&&% OO %& O@@ &&&&&&&&&&&&&&&&&&&&&&&",
"&&&&&&&&&&&&&&&&&&&&&&&&&&&&&% OO %&& @@ &&&&&&&&&&&&&&&&&&&&&&&",
"&&&&&&&&&&&&&&&&&&&&&&&&&&&&& --O %&& @66O&&&&&&&&&&&&&&&&&&&&&&",
"&&&&&&&&&&&&&&&&&&&&&&&&&&&& @@@@ %&&@>>>>@&&&&&&&&&&&&&&&&&&&&&",
"&&&&&&&&&&&&&&&&&&&&&&&&&&& @@@@@ %&&@>>>>>@&&&&&&&&&&&&&&&&&&&&",
"&&&&&&&&&&&&&&&&&&&&&&&&&&&&&%X..X%&&&&&&&&&&&&&&&&&&&&&&&&&&&&&",
"&&&&&&&&&&&&&&&&&&&&&&&&&&&&&%X..X%&&&&&&&&&&&&&&&&&&&&&&&&&&&&&",
"&&&&&&&&&&&&&&&&&&&&&&&&&&&&&%X..X%&&&&&&&&&&&&&&&&&&&&&&&&&&&&&",
"&&&&&&&&&&&&&&&&&&&&&&&&&&&&&%X..X%&&&&&&&&&&&&&&&&&&&&&&&&&&&&&",
"&&&&&&&&&&&&&&&&&&&&&&&&&&&&&%X..X%&&&&&&&&&&&&&&&&&&&&&&&&&&&&&",
"&&&&&&&&&&&&&&&&&&&&&&&&&&&&&%X..X%&&&&&&&&&&&&&&&&&&&&&&&&&&&&&",
"&&&&&&&&&&&&&&&&&&&&&&&&&&&&&%X..X%&&&&&&&&&&&&&&&&&&&&&&&&&&&&&",
"&&&&&&&&&&&&&&&&&&&&&&&&&&&&&%X..X%&&&&&&&&&&&&&&&&&&&&&&&&&&&&&"
};
