/* XPM */
static char *_d7ad900b2574a0188126ebec6d09c3dJ7yQYI8OAIhNNCBB[] = {
/* columns rows colors chars-per-pixel */
"64 64 25 1 ",
"  c None",
". c #301C19",
"X c #34343A",
"o c #4B2F25",
"O c #633724",
"+ c #673D31",
"@ c #5A440D",
"# c #524238",
"$ c #53535A",
"% c #766A55",
"& c #7F7873",
"* c #8B6B1C",
"= c #8F4F34",
"- c #9C604C",
"; c #4CB528",
": c #BC8356",
"> c #AB9A6E",
", c #F1C146",
"< c #007DFF",
"1 c #8A8A8F",
"2 c #B6B6B6",
"3 c #C8BCB4",
"4 c #EFC193",
"5 c #DBDBE2",
"6 c #F1F1F1",
/* pixels */
"                                                                ",
"                                                                ",
"                                                                ",
"                                                                ",
"                                                                ",
"                                                                ",
"                                                                ",
"                                                                ",
"                           55555551                             ",
"                          555555511                             ",
"                         555555511555                           ",
"                        25555552555555                          ",
"                       $222555555555211                         ",
"                       $$22225555555521                         ",
"                        $22222555555551                         ",
"                        $22211444455551                         ",
"                       .114114444441$51                         ",
"                       .11411:OO44O1$$$                         ",
"                       .1.11145O445$$                           ",
"                       .....445;445$                            ",
"                         ...:444444$                            ",
"                          .OO:4444                              ",
"                           ..:::O                               ",
"                          #>>>44:>#                             ",
"                         #>>>>>44:>#                            ",
"                        #>>>>>>>%%>>#                           ",
"                       %>>>>#>>>>>>>#                           ",
"                     ##%%>>>#%>>>>>>#                           ",
"                     #>>>%>#..%>>>>>.                           ",
"                     ##>>>#...##%%%..                           ",
"                     #:44= ...#%%%%...                          ",
"                     =444=  oo+++33+..                          ",
"                     =44:=  oo+++3++..                          ",
"                     =44=   **+++33+#..                         ",
"                    **44=  *,*%%%%%%%...                        ",
"                   *,,4444*,,*%%%%%%%...                        ",
"                    *,4444@,,XX%%%%%%...                        ",
"                    **444@@<<11XXX###...                        ",
"                      ===@@<<11111XXX.                          ",
"                         *,,*$$$11111XXX                        ",
"                         *,,*$$$$$$11122$$$                     ",
"                         *,**XXX$$$$$$22222$$$                  ",
"                         ***++..XXX$$$$$122266111               ",
"                         .+++. .oooXXX$$$$$16666611             ",
"                        .o+++. .ooo.  XXX$$$$$1666611           ",
"                        .+++.  .ooo.     XXX$$$$$16611          ",
"                        .+++.  .oo.         XXX$$$1661          ",
"                        .++o.  ooo.            XXXXX1           ",
"                        .++.  .ooo.                             ",
"                       .o++.  .oo.                              ",
"                       .o++.  .oo.                              ",
"                       .++o.  .oo.                              ",
"                       .++.   .oo.                              ",
"                      o33+.   .o&&.                             ",
"                     +----+   .++++.                            ",
"                    +-----+   .+++++.                           ",
"                                                                ",
"                                                                ",
"                                                                ",
"                                                                ",
"                                                                ",
"                                                                ",
"                                                                ",
"                                                                "
};
