/* XPM */
static char *_8a4bf2b696c48b3e3dcb18b893b5093MdEWAtBcpb16t45J[] = {
/* columns rows colors chars-per-pixel */
"32 32 10 1 ",
"  c #37446E",
". c #4D5A67",
"X c #321933",
"o c #566A89",
"O c #38002C",
"+ c #8BABBF",
"@ c #3A4556",
"# c black",
"$ c #222A5C",
"% c None",
/* pixels */
"...............X...............X",
".@@@@@@@@@@@@@@X.@@@@@@@@@@@@@@X",
".@@@@@@@@@@@@@@X.@@@@@@@@@@@@@@X",
".@@@@@@@@@@@@@@X.@@@@@@@@@@@@@@X",
".@@@@@@@@@@@@@@X.@@@@@@@@@@@@@@X",
".@@@@@@@@@@@@@@X.@@@@@@@@@@@@@@X",
".@@@@@@@@@@@@@@X.@@@@@@@@@@@@@@X",
".@@@@@@@@@@@@@@X.@@@@@@@@@@@@@@X",
".@@@@@@@@@@@@@@X.@@@@@@@@@@@@@@X",
".@@@@@@@@@@@@@@X.@@@@@@@@@@@@@@X",
".@@@@@@@@@@@@@@X.@@@@@@@@@@@@@@X",
".@@@@@@@@@@@@@@X.@@@@@@@@@@@@@@X",
".@@@@@@@@@@@@@@X.@@@@@@@@@@@@@@X",
".@@@@@@@@@@@@@@X.@@@@@@@@@@@@@@X",
".@@@@@@@@@@@@@@X.@@@@@@@@@@@@@@X",
"XXXXXXXXXXXXXXXXXXXXXXXXXXXXXXXX",
"...............X...............X",
".@@@@@@@@@@@@@@X.@@@@@@@@@@@@@@X",
".@@@@@@@@@@@@@@X.@@@@@@@@@@@@@@X",
".@@@@@@@@@@@@@@X.@@@@@@@@@@@@@@X",
".@@@@@@@@@@@@@@X.@@@@@@@@@@@@@@X",
".@@@@@@@@@@@@@@X.@@@@@@@@@@@@@@X",
".@@@@@@@@@@@@@@X.@@@@@@@@@@@@@@X",
".@@@@@@@@@@@@@@X.@@@@@@@@@@@@@@X",
".@@@@@@@@@@@@@@X.@@@@@@@@@@@@@@X",
".@@@@@@@@@@@@@@X.@@@@@@@@@@@@@@X",
".@@@@@@@@@@@@@@X.@@@@@@@@@@@@@@X",
".@@@@@@@@@@@@@@X.@@@@@@@@@@@@@@X",
".@@@@@@@@@@@@@@X.@@@@@@@@@@@@@@X",
".@@@@@@@@@@@@@@X.@@@@@@@@@@@@@@X",
".@@@@@@@@@@@@@@X.@@@@@@@@@@@@@@X",
"XXXXXXXXXXXXXXXXXXXXXXXXXXXXXXXX"
};
