/* XPM */
static char * wall264_xpm[] = {
"64 64 38 1",
" 	c #000000",
".	c #12161E",
"+	c #21295B",
"@	c #3A4873",
"#	c #2F3A67",
"$	c #2D3562",
"%	c #485A7E",
"&	c #4D5D81",
"*	c #4E5172",
"=	c #3E4565",
"-	c #1C2329",
";	c #566A89",
">	c #7792AC",
",	c #708AA5",
"'	c #576C8A",
")	c #21282D",
"!	c #698190",
"~	c #8FB0C4",
"{	c #8DAEC2",
"]	c #8BABBF",
"^	c #84A3B9",
"/	c #697996",
"(	c #68808F",
"_	c #411C45",
":	c #3E1740",
"<	c #222A5C",
"[	c #271F4F",
"}	c #2B1646",
"|	c #320633",
"1	c #38002B",
"2	c #20295C",
"3	c #212B5D",
"4	c #212C5E",
"5	c #330A37",
"6	c #320836",
"7	c #4A365B",
"8	c #4C274D",
"9	c #77829C",
" .+@@##@@$@%%@%%&&&*&&&%%@%@@$@%@$@%%@%%&@%%&*&&&%%@%%@@@##@@+. ",
" .=&&&&%&*&&%&&%@@#$#@@%&&%&&*&&&*&&%&&%@&&%@$#@@%&&%&&&&&&&&=. ",
" -;>>>>>>>>>,>>,'@#$#@',>>,>>>>>>>>>,>>,'>>,'$#@',>>,>>>>>>>>;- ",
" )!~~{{{]{~~^~~^,;###;,^~~^]]{~~]{~~^~~^,~~^,##;,^~~^~~]{{{~~!) ",
" )!~{]]]]{~~]~~]^/@$@/^]~~]]]{~~]{~~]~~]^~~]^$@/^]~~]~~]]]]{~!) ",
" )({{]]]]]{{{{{{~,@$@,{{{{{]]]{{]]{{{{{{~{{{~$@,{{{{{{{]]]]{{() ",
" )({{]]]]]{{{{{{{,@$@,{{{{{]]]{{]]{{{{{{{{{{{$@,{{{{{{{]]]]{{() ",
" )({{]]]]]{{{{{{{,@$@,{{{{{]]]{{]]{{{{{{{{{{{$@,{{{{{{{]]]]{{() ",
" )({{]]]]]{{{{{{{,@$@,{{{{{]]]{{]]{{{{{{{{{{{$@,{{{{{{{]]]]{{() ",
" )({{]]]]]{{{{{{{,@$@,{{{{{]]]{{]]{{{{{{{{{{{$@,{{{{{{{]]]]{{() ",
" )({{]]]]]{{{{{{{,@$@,{{{{{]]]{{]]{{{{{{{{{{{$@,{{{{{{{]]]]{{() ",
" )!~{]]]]]~{{~{{{,@$@,{{{~{]]]~{]]~{{~{{{~{{{$@,{{{~{{~]]]]{~!) ",
" )!~{]]]]]~{{~{{{,@$@,{{{~{]]]~{]]~{{~{{{~{{{$@,{{{~{{~]]]]{~!) ",
" )'^]{]]]]^]{^]{{,@$@,{{]^{]]]{{]]{{{{{{{{{{{$@,{{]^{]^]]]{]^'- ",
" .*,^{{{{{,^{,^{{,@$@,{{^,{^]]~{]]~{{~{{{~{{{$@,{{^,{^,{{{{^,*. ",
" .=',>>>>>/^{/^{{,$#@,{{^/{^]]~{]]~{{~{{{~{{{$#@{{^/{^/>>>>,'=. ",
" .$@%%=**********=$#@=**********==**********=$#@**********=%@$. ",
" .=&&%@@#$_:::_:::::::_:::_:::::_:::_::::::::::::_:::_$#@@%&&=. ",
" -;>>,'@#$=**********=<[[[[[[}|11|}[[[[[[<=**********=$#@',>>;- ",
" )!~~^,;##%''''''''''&#2<3344[5115[4433<2#&''''''''''%##;,^~~!) ",
" )!~~]^/@$%''''''''''&#2<3334[5115[4333<2#%''''''''''%$@/^]~~!) ",
" )({{{~,@$%'';;;;;;''%#++<<33[5115[33<<++#%'';;;;;;''%$@,{{{{() ",
" )({{{{,@$%'';;;;;;''%#++<<33[5115[33<<++#%'';;;;;;''%$@,{{{{() ",
" )({{{{,@$%'';;;;;;''%#++<<33[5115[33<<++#%'';;;;;;''%$@,{{{{() ",
" )({{{{,@$%'';;;;;;''%#++<<33[5115[33<<++#%'';;;;;;''%$@,{{{{() ",
" )({{{{,@$%'';;;;;;''%#++<<33[5115[33<<++#%'';;;;;;''%$@,{{{{() ",
" )({{{{,@$%'';;;;;;''%#++<<33[5115[33<<++#%'';;;;;;''%$@,{{{{() ",
" )!~{{{,@$%'';;;;;;''%#++<<33[5115[33<<++#%'';;;;;;''%$@,{{{~!) ",
" )!~{{{,@$%'';;;;;;''%#++<<33[5115[33<<++#%'';;;;;;''%$@,{{{~!) ",
" )'^]{~,@$%''''''''''%#2<3334[5115[4333<2#%''''''''''%$@,~{]^'- ",
" .*,^~~,@$%''''''''''&#2<3344[5115[4433<2#&''''''''''%$@,~~^,*. ",
" .=',>>/@$=**********=<[[[[[[}|11|}[[[[[[$=**********=$@/>>,'=. ",
" .$@%%%%#$_:::::::_:_:5666655|1111|5566665:_:::::::::_$@%%%%@$. ",
" .=&&%%&&*78_:11|666|55666666555555666665666666|11:_87*&&%%&&=. ",
" -;>>>>>>>9/&7:|}[[[[[[[[[[[[[[[[[[[[[[[[[[[[[[}|:7&/9>>>>>>>;- ",
" )!~~{]{{{~^,&_6[443333333333333333333333333344[6_&,^~{{{]{~~!) ",
" )!~{]]]]{{]^/86[433333333333333333333333333334[68/^]{{]]]]{~!) ",
" )({{]]]]]]{~98|[33<<<<<<<<<<<<<<<<<<<<<<<<<<33[|89~{]]]]]]{{() ",
" )({{]]]]]]{~98|[33<<<<<<<<<<<<<<<<<<<<<<<<<<33[|89~{]]]]]]{{() ",
" )({{]]]]]]{{98|[33<<<<<<<<<<<<<<<<<<<<<<<<<<33[|89{{]]]]]]{{() ",
" )({{]]]]]]{{98|[33<<<<<<<<<<<<<<<<<<<<<<<<<<33[|89{{]]]]]]{{() ",
" )({{]]]]]]{{98|[33<<<<<<<<<<<<<<<<<<<<<<<<<<33[|89{{]]]]]]{{() ",
" )({{]]]]]]{{98|[33<<<<<<<<<<<<<<<<<<<<<<<<<<33[|89{{]]]]]]{{() ",
" )!~{]]]]]]{{98|[33<<<<<<<<<<<<<<<<<<<<<<<<<<33[|89{{]]]]]]{~!) ",
" )!~{]]]]]]{{98|[33<<<<<<<<<<<<<<<<<<<<<<<<<<33[|89{{]]]]]]{~!) ",
" )'^]{]]]]{~~98|[433333333333333333333333333334[|89~~{]]]]{]^'- ",
" .*,^{{{{{{~~98|[443333333333333333333333333344[|89~~{{{{{{^,*. ",
" .=',>>>>>999;_|}[[[[[[[[[[[[[[[[[[[[[[[[[[[[[[}|_;999>>>>>,'=. ",
" .$@%%&&&*788_11|666666666666555555666666666666|11_887*&&&%%@$. ",
" .=&&%@@#$_:::_:::::::5666655|1111|5566655:::::::_:::_$#@@%&&=. ",
" -;>>,'@#$=**********=<[[[[[[}|11|}[[[[[[<=**********=$#@',>>;- ",
" )!~~^,;##%''''''''''&#2<3344[5115[4433<2#&''''''''''%##;,^~~!) ",
" )!~~]^/@$%''''''''''&#2<3334[5115[4333<2#%''''''''''%$@/^]~~!) ",
" )({{{~,@$%'';;;;;;''%#++<<33[5115[33<<++#%'';;;;;;''%$@,{{{{() ",
" )({{{{,@$%'';;;;;;''%#++<<33[5115[33<<++#%'';;;;;;''%$@,{{{{() ",
" )({{{{,@$%'';;;;;;''%#++<<33[5115[33<<++#%'';;;;;;''%$@,{{{{() ",
" )({{{{,@$%'';;;;;;''%#++<<33[5115[33<<++#%'';;;;;;''%$@,{{{{() ",
" )({{{{,@$%'';;;;;;''%#++<<33[5115[33<<++#%'';;;;;;''%$@,{{{{() ",
" )({{{{,@$%'';;;;;;''%#++<<33[5115[33<<++#%'';;;;;;''%$@,{{{{() ",
" )!~{{{,@$%'';;;;;;''%#++<<33[5115[33<<++#%'';;;;;;''%$@,{{{~!) ",
" )!~{{{,@$%'';;;;;;''%#++<<33[5115[33<<++#%'';;;;;;''%$@,{{{~!) ",
" -'^]{{,@$%'';;;;;;''%#++<<33[5115[33<<++#%'';;;;;;''%$@,{{]^'- ",
" .*,^{{,@$%'';;;;;;''%#++<<33[5115[33<<++#%'';;;;;;''%$@,{{^,*. ",
" .=/^{{,@$%'';;;;;;''%#++<<33[5115[33<<++#%'';;;;;;''%$@,{{^/=. "};
