/* XPM */
static char *_1e620d0b0ae4bd4e66705a00c7c50156JB93R3sMczChkUQ[] = {
/* columns rows colors chars-per-pixel */
"32 32 6 1 ",
"  c #1F220C",
". c #22260E",
"X c #272B11",
"o c #2D3114",
"O c #333719",
"+ c #383D1E",
/* pixels */
".                ooOOOOOX.......",
".                oOOOOOOO.......",
". .XXXXXXXXX.    oOoooooo.Xooooo",
". XXooooooXX..   oOoooooo.oooXXX",
"  XXX...         oOoooooo.XoXXXX",
"  XX....         oOoooooo .oXXX.",
"  XX....         XOoooooX       ",
"   X...          .XooooX.   ... ",
"        .......    ..           ",
"OooX.XooooooooooooOX.  ....Xoooo",
"OoooXoooooooooooooOoX ....Xooooo",
"ooooXoooXXXXXXooooooX ....XooXXo",
"ooooXooX....XoooooooX .....ooXXX",
"Xooo.oo......oooXooo.  ....ooXXX",
"XooX.Xo......ooXXooX.     .XoXXX",
"......X.............. ..........",
".oO++++++O+OOOo..oO++++++O+OOO  ",
".O+++++++O+OOOoo.O+++++++O+OOOo ",
".O+OOoooooooXXXo.O+OOoooooooXXX ",
".O+OoooooooXXXXX.O+OoooooooXXXX ",
" O+ooooooooXXXXX O+ooooooooXXXX ",
" OOooooooooXXXXX OOooooooooXXXX ",
" XOooooooooXXXXX XOooooooooXXXX ",
" .XoooooooooXXX. .XoooooooooXXX ",
"   ..XXXXXXX.      ..XXXXXXX.   ",
"OoOX.oOOOOOOOOOoOoOX.oOOOOOOOOOo",
"OoOoXOOOOOOOOOOoOoOoXOOOOOOOOOOo",
"ooooXOOOOOooXXXoooooXOOOOOooXXXo",
"ooooXoOOoooXXXXXooooXoOOoooXXXXX",
"Xooo.oOOoooXXXXXXooo.oOOoooXXXXX",
"XooX..OOoooXXXXXXooX..OOoooXXXXX",
".......XXXX............XXXX....."
};
